<svg xmlns="http://www.w3.org/2000/svg" version="1.0" viewBox="-2.04189744 -2.04189744 178.37648488 72.14704288"><path d="M76.19003 32.7088c-3.4524-3.36935-8.1861-5.46926-13.37063-5.46926H26.08874l13.58418-13.61977h34.55956c1.45926.02373 2.82361.66438 3.78459 1.62536l20.06187 20.12119c3.4524 3.35748 8.17423 5.46926 13.39435 5.46926h36.76626l-13.6079 13.61977h-34.52398c-1.48299-.04746-2.82361-.67624-3.79645-1.67281L76.19003 32.7088zm10.49956 29.73096c3.4168 3.4524 8.16237 5.62349 13.41808 5.62349h40.12374l34.06128-34.02569L140.23141 0h-19.2314l27.23954 27.23954h-36.76626c-1.44739 0-2.79978-.58133-3.74899-1.50672L87.6387 5.64723C84.19817 2.15924 79.46447.01187 74.23248 0H34.04952L0 34.03756l34.04952 34.02569h19.24316L26.08874 40.83558H62.8194c1.45926 0 2.77616.58133 3.749 1.53044l20.12119 20.07374" style="fill:#006;fill-opacity:1;fill-rule:evenodd;stroke:none" class="dark"/></svg>