<svg xmlns="http://www.w3.org/2000/svg" viewBox="0 0 179 121"><g fill-rule="evenodd"><path fill="#D1232A" d="M0 120.62h179V.62H0z" class="dark"/><path fill="#723A83" d="M136.49 59.95v-.11a37.67 37.67 0 0 0-35.9-37.62l-.3 6.74a30.97 30.97 0 0 1 29.38 30.92v.07h6.82z" class="light"/><path fill="#FFFFFE" d="M69.22 51.06c0 3.05 2.53 4.14 5.1 4.14 2.31 0 4.4-.58 6.58-1.2l-.23 5.28c-2.23.47-4.98.84-7.24.84-6.21 0-11.63-1.87-11.63-9.56 0-2.07.81-10.85 11.2-10.85 6.4 0 9.92 3 9.92 8.43 0 .98-.08 1.95-.28 2.92H69.22zm6.51-3.55c0-2.26-.93-3.43-2.8-3.43-2.12 0-3.29 1.76-3.48 3.43h6.28zm18.75-2.79c-.07 2.18-.35 4.54-.3 7.11.02 1.48.63 2.7 2.28 2.7a7.8 7.8 0 0 0 2.32-.3l-.25 5.18c-1.67.42-3.62.69-5.33.69-3.76 0-6.29-1-6.37-5.16-.06-3.08.31-6.74.36-10.2l-3.08-.01.24-5.09h3.18l.16-3.5 7.27-1.66-.27 5.13h4.77l-.23 5.24-4.75-.13zm22.13.91c-1.67-.6-2.67-.8-4.38-.8-.94 0-2.7 0-2.7.97 0 2.1 6.8 3.67 6.8 8.7 0 4.3-4.88 5.62-8.36 5.62-3.77 0-6.24-.76-7.1-.93l.26-5.32c2.92 1.15 3.4 1.14 5 1.14.86 0 2.55-.04 2.55-1.18 0-1.83-6.8-4.01-6.8-8.58 0-3.23 2.38-5.54 7.89-5.54 2.22 0 4.55.34 7.08.75l-.24 5.17zM83.47 62.92c-.43 4.37-1.1 17.64-1.22 24.46h-7.77c.74-8.66.98-15.76 1.21-24.46h7.78zm4.38 5.28c3.09-.7 6.38-1.27 9.39-1.27 6.17 0 8.2 2.07 8.2 5.3 0 .99-.68 11.38-.68 15.29l-7.52-.06c.32-2.88.47-6.4.62-9.3-1.45 1.02-5.93 1.18-5.93 3.48 0 1.21 1.1 1.56 2.14 1.56 1.09 0 2.26-.43 3.59-1.12l-.06 4.67c-2.25.63-4.83.7-5.88.7-7.14 0-7.21-5.26-7.21-5.7 0-8.22 13.32-5.69 13.32-9.12 0-1.29-1.38-1.56-2.42-1.56-2.74 0-5.2.74-7.74 1.68l.18-4.55zm36.57 5.16c-1.6-.55-2.92-.79-4.6-.79-3 0-4.92 1.76-4.92 4.8 0 2.92 1.56 4.44 4.48 4.44 1.64 0 3.17-.36 4.7-.9l-.28 5.73c-1.9.47-4.37.75-6.32.75-6.37 0-10-3.43-10-9.87 0-2.06.5-10.53 10.35-10.53 2.53 0 4.87.32 6.85.82l-.26 5.55zm-66.16 3.88c0 2.26 1.1 4.83 3.75 4.83 2.77 0 3.83-2.89 3.83-5.18 0-2.82-1.45-4.61-4.34-4.61-.98 0-1.91.2-2.84.43a29 29 0 0 0-.4 4.53m-.3 7.72-.05 1.18a292.7 292.7 0 0 0-.27 9.66h-7.73c.82-9.24 1.37-18.53 1.37-27.81a65.56 65.56 0 0 1 11.36-1.02c7.96 0 10.61 4.88 10.61 10.19 0 5.03-2.77 10.22-8.39 10.22-2.54 0-4.91-.82-6.9-2.42M44.55 50c0 2.26 1.1 4.84 3.75 4.84 2.78 0 3.83-2.9 3.83-5.2 0-2.8-1.45-4.6-4.33-4.6-.99 0-1.91.2-2.86.43-.23 1.49-.39 3-.39 4.53m-.26 7.66-.05 1.18c-.08 2.22-.26 6.78-.26 9.66h-7.74a313.6 313.6 0 0 0 1.37-27.82 65.86 65.86 0 0 1 11.36-1.01c7.97 0 10.62 4.88 10.62 10.18 0 5.04-2.77 10.22-8.39 10.22-2.54 0-4.92-.82-6.9-2.41M132.7 78.3c0 3.04 2.53 4.14 5.11 4.14 2.3 0 4.37-.59 6.55-1.21l-.24 5.33c-2.22.47-4.95.8-7.2.8-6.22 0-11.64-1.88-11.64-9.56 0-2.07.82-10.85 11.2-10.85 6.4 0 9.93 3 9.93 8.43 0 .97-.08 1.95-.28 2.92H132.7zm6.52-3.55c0-2.26-.94-3.44-2.8-3.44-2.12 0-3.3 1.76-3.49 3.44h6.29z" class="light"/></g></svg>