<?xml version="1.0" encoding="UTF-8"?>
<svg id="SVGRoot" width="500" height="76.106" version="1.1" viewBox="0 0 500 76.105888" xmlns="http://www.w3.org/2000/svg" xmlns:cc="http://creativecommons.org/ns#" xmlns:dc="http://purl.org/dc/elements/1.1/" xmlns:rdf="http://www.w3.org/1999/02/22-rdf-syntax-ns#"><metadata><rdf:RDF><cc:Work rdf:about=""><dc:format>image/svg+xml</dc:format><dc:type rdf:resource="http://purl.org/dc/dcmitype/StillImage"/><dc:title/></cc:Work></rdf:RDF></metadata><g transform="translate(-134.76 -228.26)"><path d="m153.74 228.63c-0.81399 0-1.5862 0.29495-2.3167 0.88596-0.66785 0.5093-1.2006 1.3244-1.5972 2.4451l-14.746 38.48c-0.45664 1.1917-0.49582 2.346 0.4383 3.1475 0.43366 0.37216 1.5175 0.55042 2.269 0.55042 1.5445 0 2.9443-0.66112 3.3967-1.9261 0.96642-2.7025 3.0065-8.0683 3.0065-8.0683h19.224s2.0034 5.3789 3.0051 8.0683c0.2437 0.65424 0.57757 1.1875 1.1589 1.5592 0.51869 0.33154 1.6403 0.46253 2.2069 0.48853 0.77148 0.0354 1.8797-0.18761 2.3636-0.5494 0.49714-0.37172 0.7506-0.90674 0.7506-1.6199 0-0.46868-0.0145-1.041-0.25017-1.6503-4.9779-12.867-14.934-38.602-14.934-38.602-0.43833-1.1003-0.98127-1.8952-1.6283-2.3844-0.68874-0.55008-1.4713-0.82507-2.3479-0.82507zm0 9.9058h0.12447l7.2535 19.75h-14.72z" fill="#d20000"/><path d="m205.95 228.75c-5.5718 0.0106-11.354 3.9961-13.179 9.308-1.3168 4.0408-0.0413 9.0591 3.7733 11.387 4.2862 3.118 9.6955 3.7816 13.348 5.6573 2.259 1.16 3.4438 3.8945 3.0589 6.4156-0.39613 4.5983-4.7507 7.3101-9.5223 6.6214-3.066-0.18674-4.9704-1.429-7.5186-3.0321-1.5108-0.96051-3.6468 0.51612-3.7935 2.2789-0.42201 2.2504 1.6316 4.2771 3.4332 5.0028 5.3054 2.0616 11.616 2.5822 16.882 0.1161 5.7752-2.7029 8.895-9.6062 7.235-15.613-0.73151-3.2532-3.4113-6.2506-6.4142-7.6479-3.7062-1.875-6.5729-2.1179-10.243-4.0588-2.3345-1.2222-4.3383-3.4472-3.3124-6.1047 0.74745-3.069 3.6044-4.1629 6.815-3.986 3.2091-0.0381 4.7972 2.2331 7.8256 2.9336 1.8895 0.0138 3.7444-3.0231 2.633-4.6582-1.4457-2.1965-4.6113-3.7727-7.0956-4.2931-1.294-0.23267-2.6115-0.32621-3.9262-0.3265z" fill="#d20000"/><g fill="#737373"><path d="m149.08 296.1 1.2211 3.266h1.7912l-5.941-15.241-1.5117 0.0986-5.9041 15.143h1.6683l1.2211-3.266zm-0.5479-1.4655h-6.3594l3.2866-8.4215z"/><path d="m161.8 288.22h-1.7738v11.149h1.6526v-5.764c0-1.6841 0.37546-4.1801 2.7651-4.1801 1.9574 0 2.3953 2.235 2.3953 3.6108v6.3333h1.6525v-5.9064c0-1.6842 0.37545-4.0378 2.7143-4.0378 2.0845 0 2.5945 2.0218 2.5674 3.4685v6.4756h1.6525v-6.784c0-2.3483-0.76262-4.6729-3.8132-4.6729-1.449 0-2.8727 0.61673-3.5844 1.8502-0.63546-1.1623-1.9066-1.8502-3.3048-1.8502-1.2202 0-2.237 0.59301-2.8726 1.5181h-0.0504z"/><path d="m183.5 288.03c-3.4869 0-5.1648 2.6066-5.1648 5.9037 0 3.2022 1.8913 5.6195 5.2121 5.6195 1.9864 0 3.6117-0.77604 4.7029-2.2963l-1.028-1.054c-0.7762 1.107-2.0658 1.7161-3.5316 1.7161-2.1585 0-3.6298-1.4186-3.6535-3.4823h8.1468c0.18978-3.3208-1.1021-6.4066-4.6839-6.4066zm0.0236 1.5124c2.0749 0 3.066 1.8191 3.0308 3.4025h-6.4227c3.7e-4 -1.5834 1.2814-3.4025 3.3919-3.4025z"/><path d="m214.8 289.66c2.1052 0 3.3597 1.8027 3.3597 4.0324 0 2.2534-1.1482 4.2222-3.3384 4.2222-2.1264 0-3.2746-2.0637-3.2746-4.2459 0-2.0874 1.2758-4.0087 3.2533-4.0087zm-4.8694 9.7016h1.7011v-1.5418h0.0425c0.80802 1.2097 2.0626 1.8502 3.4447 1.8502 2.9344 0 4.7844-2.7753 4.7844-5.8826 0-3.1548-1.8287-5.8826-4.8056-5.8826-1.3609 0-2.6155 0.71163-3.4235 1.8976h-0.0425v-6.3718h-1.7011z"/><path d="m236.57 288.24h-1.8976v11.124h1.6551v-5.9381c0-1.447 0.94787-2.9499 2.1823-3.6422 0.43676-0.24499 1.5024 0.013 1.5024 0.013l0.53754-1.3678c-0.54554-0.30837-0.94615-0.40057-1.5866-0.40057-0.75971 0-1.5602 0.75604-2.2244 1.3968h-0.16868z"/><path d="m253.08 299.67c2.8798 0 5.192-2.5855 5.192-5.8589 0-3.2734-2.2912-5.9064-5.192-5.9064-2.9007 0-5.192 2.633-5.192 5.9064 0 3.2734 2.3122 5.8589 5.192 5.8589zm0-9.8887c2.081 0 3.3891 1.7526 3.3891 4.0061 0 2.2771-1.308 4.0061-3.3891 4.0061-2.081 0-3.389-1.7289-3.389-4.0061 0-2.2534 1.308-4.0061 3.389-4.0061z"/><path d="m263.08 289.61h1.9738v-1.3915h-1.9738v-1.3461c0-1.4359-0.20646-2.1308 1.0567-2.4536 0.42222-0.10788 0.85395 0.11859 1.2809 0.26092v-1.5575c-0.45064-0.14233-0.90136-0.2372-1.352-0.2372-1.1386 0-1.8038 0.48825-2.2638 1.157-0.55131 0.80144-0.46393 1.9729-0.37686 2.8939v1.2826h-1.2862v1.3915h1.2862v9.757h1.6551z"/><path d="m280.25 284.06c-4.357 0-7.4426 3.5707-7.4426 7.9277 0 4.3167 3.146 7.8057 7.4426 7.8057 1.61 0 3.2192-0.78488 4.5288-1.7288l-1.1938-1.1417c-1.016 0.65345-2.194 1.1765-3.3954 1.1765-3.409 0-5.44-3.4286-5.4449-6.1721-6e-3 -2.7347 2.0158-6.1721 5.4047-6.1721 1.2256 0 2.4074 0.50114 3.4238 1.1528l1.1855-1.1334c-1.3438-0.99382-2.8264-1.7146-4.5087-1.7146z"/><path d="m288.48 290.72v-6.5882h-1.4519v15.234h1.4519v-6.9681l0.66615 0.0372 7.2031 6.9309h2.34l-8.2317-7.8623 7.9896-7.3713h-2.158l-7.1901 6.5582z"/><path d="m308.18 291.34v-7.1427h-1.7956v15.209h1.7956v-6.4933h8.2511v6.4933h1.7956v-15.209h-1.7956v7.1427z"/><path d="m323.42 288.22h-1.6382v6.4282c0 2.965 0.93356 5.0287 4.4119 5.0287s4.4119-2.0637 4.4119-5.0287v-6.4282h-1.6381v6.2147c0 1.8739-0.34646 3.7294-2.7738 3.7294s-2.7737-1.8555-2.7737-3.7294z"/><path d="m336.46 289.61h1.6287v-1.3915h-1.6287v-3.1598h-1.655v3.1598h-1.4048v1.3915h1.4048v9.757h1.655z"/><path d="m345.77 287.91c-3.2734 0-5.9547 2.5616-5.9547 5.8824 0 3.3683 2.5627 5.8824 5.931 5.8824 1.0912 0 1.9159-0.39705 2.8241-0.90172l-0.93326-1.5408c-0.61553 0.36371-1.1973 0.68738-2.0342 0.68738-2.3246 0-3.8418-1.9213-3.8418-4.1273 0-2.2297 1.6369-4.1273 3.9378-4.1273 0.78887 0 1.3414 0.33669 1.9335 0.70039l0.93676-1.5455c-0.8902-0.50537-1.7908-0.91002-2.7992-0.91002z"/><path d="m350.78 283.43v15.931h1.6551v-5.2896c0-1.5738 0.28728-4.5332 2.8965-4.5332 2.206 0 2.4696 1.7342 2.4696 3.537v6.2859h1.655v-6.618c0-2.6092-0.469-4.839-3.5527-4.839-1.3758 0-2.3958 0.59301-3.1785 1.6604l-0.28996-0.0475v-6.0872z"/><path d="m365.1 288.22h-1.8977v11.149h1.8977zm-0.94885-4.3378c-0.73532 0-1.352 0.61672-1.352 1.352 0 0.75906 0.61673 1.3521 1.352 1.3521 0.73534 0 1.3521-0.59301 1.3521-1.3521 0-0.73532-0.61673-1.352-1.3521-1.352z"/><path d="m375.97 289.85c-0.57647-1.1623-2.0704-2.0637-3.5528-2.0637-2.0864 0-4.4497 1.4022-4.4497 3.2761 0 3.5106 5.8694 2.5579 5.8199 5.1473-0.017 0.8986-0.9059 1.7079-2.0864 1.7079-1.455 0-2.2076-0.49278-2.7566-1.5365l-1.8279 0.95416c0.68627 1.7553 2.3883 2.3376 4.5571 2.3376 2.3883 0 4.3649-1.5181 4.3649-3.6292 0-1.8739-1.4824-2.6567-2.9923-3.2022-1.5098-0.54557-3.0066-0.75553-2.9923-1.9451 0.0103-0.86077 1.4299-1.3547 2.1986-1.3547 0.7961 0 1.94 0.66685 2.242 1.2598z"/><path d="m393.18 288.22h-1.8976v11.149h1.6551v-6.0173c0-1.9925 0.91105-3.9269 3.0178-3.9269 2.206 0 2.5909 1.8555 2.5909 3.6583v6.2859h1.6551v-6.618c0-2.6092-0.71156-4.839-3.7952-4.839-1.3758 0-2.3958 0.59301-3.1785 1.6604h-0.0473z"/><path d="m439.14 283.43h-1.6551v15.931h1.6551z"/><path d="m447.18 289.66c2.0283 0 3.2371 1.8027 3.2371 4.0324 0 2.2534-1.1063 4.2222-3.2166 4.2222-2.0488 0-3.1551-2.0637-3.1551-4.2459 0-2.0874 1.2292-4.0087 3.1346-4.0087zm3.1552 9.7016h1.639v-15.931h-1.639v6.3718h-0.0412c-0.77857-1.186-2.0078-1.8976-3.2986-1.8976-2.8888 0-4.6303 2.7278-4.6303 5.9064 0 3.0836 1.7824 5.8589 4.6099 5.8589 1.3112 0 2.52-0.64045 3.319-1.8502h0.0412z"/><path d="m477.16 287.91c-3.0095 0-4.9149 2.7987-4.9149 5.9298 0 3.1074 1.8837 5.835 4.8497 5.835 1.364 0 2.7065-0.68758 3.5292-1.8499h0.0462v1.3276c0 2.4306-1.6631 3.4043-3.2699 3.5813-1.2415 0.13677-2.8049-0.30229-3.4761-1.7424l-1.1367 1.1159c0.83538 1.75 2.9359 2.2715 4.6341 2.2615 1.6692-0.01 2.9168-0.75906 3.8189-1.8482 0.94829-1.1449 1.1611-2.5271 1.1611-4.3061v-9.9967h-1.7314v1.5893h-0.0462c-0.82267-1.2097-2.0568-1.8973-3.4641-1.8973zm0.1753 1.7551c2.1435 0 3.4202 1.8028 3.4202 4.0325 0 2.2534-1.1691 4.222-3.399 4.222-2.1652 0-3.3338-2.0635-3.3338-4.2457 0-2.0874 1.2988-4.0089 3.3125-4.0089z"/><path d="m227.13 288.03c-3.4869 0-5.1647 2.6066-5.1647 5.9037 0 3.2022 1.8912 5.6195 5.2121 5.6195 1.9864 0 3.6116-0.77604 4.7029-2.2963l-1.028-1.054c-0.77614 1.107-2.0657 1.7161-3.5316 1.7161-2.1585 0-3.6298-1.4186-3.6536-3.4823h8.1468c0.18974-3.3208-1.1021-6.4066-4.6839-6.4066zm0.0236 1.5124c2.0749 0 3.066 1.8191 3.0308 3.4025h-6.4227c3.7e-4 -1.5834 1.2814-3.4025 3.3918-3.4025z"/><path d="m192.78 288.22h-1.7738v11.149h1.6525v-5.764c0-1.6841 0.37551-4.1801 2.7651-4.1801 1.9574 0 2.3953 2.235 2.3953 3.6108v6.3333h1.6526v-5.9064c0-1.6842 0.37545-4.0378 2.7142-4.0378 2.0846 0 2.5945 2.0218 2.5675 3.4685v6.4756h1.6525v-6.784c0-2.3483-0.76262-4.6729-3.8132-4.6729-1.449 0-2.8727 0.61673-3.5845 1.8502-0.63548-1.1623-1.9066-1.8502-3.3048-1.8502-1.2202 0-2.237 0.59301-2.8726 1.5181h-0.0504z"/><path d="m383.43 299.67c2.8798 0 5.192-2.5855 5.192-5.8589 0-3.2734-2.2912-5.9064-5.192-5.9064-2.9008 0-5.192 2.633-5.192 5.9064 0 3.2734 2.3122 5.8589 5.192 5.8589zm0-9.8887c2.081 0 3.3891 1.7526 3.3891 4.0061 0 2.2771-1.3081 4.0061-3.3891 4.0061s-3.3891-1.7289-3.3891-4.0061c0-2.2534 1.3081-4.0061 3.3891-4.0061z"/><path d="m429.51 299.67c2.8798 0 5.192-2.5855 5.192-5.8589 0-3.2734-2.2912-5.9064-5.192-5.9064-2.9008 0-5.192 2.633-5.192 5.9064 0 3.2734 2.3122 5.8589 5.192 5.8589zm0-9.8887c2.081 0 3.3891 1.7526 3.3891 4.0061 0 2.2771-1.3081 4.0061-3.3891 4.0061-2.081 0-3.3891-1.7289-3.3891-4.0061 0-2.2534 1.3081-4.0061 3.3891-4.0061z"/><path d="m411.32 291.34v-7.1427h-1.7956v15.209h1.7956v-6.4933h8.2511v6.4933h1.7955v-15.209h-1.7955v7.1427z"/><path d="m457.14 288.22h-1.8976v11.149h1.8976zm-0.94877-4.3378c-0.73533 0-1.3521 0.61672-1.3521 1.352 0 0.75906 0.61673 1.3521 1.3521 1.3521s1.352-0.59301 1.352-1.3521c0-0.73532-0.61668-1.352-1.352-1.352z"/><path d="m493.6 289.85c-0.57648-1.1623-2.0704-2.0637-3.5528-2.0637-2.0864 0-4.4497 1.4022-4.4497 3.2761 0 3.5106 5.8693 2.5579 5.8199 5.1473-0.017 0.8986-0.9059 1.7079-2.0864 1.7079-1.455 0-2.2076-0.49278-2.7566-1.5365l-1.8279 0.95416c0.68628 1.7553 2.3883 2.3376 4.5571 2.3376 2.3883 0 4.3649-1.5181 4.3649-3.6292 0-1.8739-1.4824-2.6567-2.9923-3.2022-1.5098-0.54557-3.0067-0.75552-2.9923-1.9451 0.0103-0.86077 1.4299-1.3547 2.1986-1.3547 0.79609 0 1.9401 0.66685 2.242 1.2598z"/><path d="m462.46 288.22h-1.8977v11.149h1.6551v-6.0173c0-1.9925 0.91105-3.9269 3.0178-3.9269 2.206 0 2.5909 1.8555 2.5909 3.6583v6.2859h1.6551v-6.618c0-2.6092-0.71161-4.839-3.7953-4.839-1.3758 0-2.3958 0.59301-3.1786 1.6604h-0.0473z"/></g><g fill="#d20000"><path d="m182.21 266.66c-0.96237 0-1.8306 0.36289-2.6051 1.0906-0.70416 0.82153-1.0555 1.6897-1.0555 2.6051 0 0.96222 0.35133 1.8076 1.0555 2.5351 0.7745 0.75106 1.6427 1.1268 2.6051 1.1268 0.93881 0 1.8071-0.35264 2.6051-1.0568 0.70409-0.82152 1.0568-1.6898 1.0568-2.6051 0-1.0092-0.35268-1.8775-1.0568-2.6051-0.77456-0.72772-1.6429-1.0906-2.6051-1.0906z"/><path d="m228.52 266.66c-0.96234 0-1.8305 0.36289-2.605 1.0906-0.70419 0.82153-1.0556 1.6897-1.0556 2.6051 0 0.96222 0.35144 1.8076 1.0556 2.5351 0.7745 0.75106 1.6427 1.1268 2.605 1.1268 0.93884 0 1.8072-0.35264 2.6051-1.0568 0.70417-0.82152 1.0568-1.6898 1.0568-2.6051 0-1.0092-0.35267-1.8775-1.0568-2.6051-0.77449-0.72772-1.6429-1.0906-2.6051-1.0906z"/><path d="m302.03 228.26c-0.74091 0-2.1351 0.25504-2.7114 0.76449-0.38584 0.33612-0.6725 0.78154-0.86169 1.3355-0.0628 0.18465-0.11589 0.38056-0.15709 0.58939l-5.3091 33.157-10.132-33.157c-0.20579-0.71316-0.56566-1.2319-1.0803-1.558-0.5556-0.42789-1.1832-0.64169-1.883-0.64169-1.3583 0-2.2233 0.73272-2.5938 2.1997l-9.7651 33.157-5.9213-32.911c-0.12354-0.77427-0.46315-1.3755-1.0189-1.8034-0.5968-0.42789-1.501-0.64169-2.2214-0.64169-0.74086 0-1.5932 0.2951-2.0666 0.88595-0.51455 0.67238-0.77215 1.61-0.77215 2.8122l7.0659 38.265c0.22648 1.2022 0.71001 2.0985 1.4509 2.6894 0.80272 0.65207 1.7195 0.97821 2.7485 0.97821 0.96735 0 1.8311-0.24498 2.5925-0.73396 0.72034-0.46868 1.2254-1.1612 1.5136-2.0781l9.1106-30.249h0.12406l9.1106 30.127c0.20078 0.6724 0.54034 1.2525 1.0189 1.7415 0.15945 0.16296 0.33495 0.31553 0.52533 0.45817 0.67921 0.48898 1.4925 0.73396 2.4392 0.73396 1.029 0 1.9547-0.34625 2.778-1.0389 0.84382-0.71318 1.359-1.6808 1.5443-2.9033l7.0646-37.716v-1.1314c0-1.1003-0.25642-1.9353-0.77086-2.5058-0.47337-0.55024-1.0807-0.82522-1.8218-0.82522z"/><path d="m348.73 229.91c-0.76486 0-1.4527 0.22564-2.0645 0.67788-0.54627 0.45208-0.83304 1.089-0.81981 1.911v7.6145h-2.3773c-1.7264 0-2.6877 1.3114-2.8844 2.9556 0.0656 0.61661 0.36059 1.6608 0.88494 2.154 0.48093 0.45209 1.1481 0.71761 1.9995 0.67788h2.3773v25.288c0 0.94533 0.27354 1.644 0.81981 2.0961 0.52452 0.4932 1.4129 0.74028 2.1778 0.74028 0.874 0 1.7406-0.23693 2.3525-0.70967 0.61192-0.49325 0.91349-1.1603 0.9176-2.003v-25.412h2.7618c0.95462-0.10004 1.5877-0.37849 2.1219-1.0248 0.2458-0.37 0.36876-1.2984 0.36876-1.8071 0.027-0.69362-0.36742-1.7955-0.72158-2.2471-0.54615-0.4726-1.2232-0.7085-2.0318-0.7085h-2.4997v-7.4906c0-0.90437-0.28437-1.5828-0.85245-2.0348-0.65563-0.45224-1.377-0.67788-2.1635-0.67788z"/><path d="m371.38 239.62c-3.9111 0.13227-8.1178 1.7205-10.148 5.2981-1.723 2.9015-1.4191 5.998-0.0576 8.462 1.6338 2.9572 6.0973 3.8776 8.5994 5.2833 2.2916 1.2874 5.9132 2.1336 6.9789 3.6671 1.1613 1.6711 0.45181 3.5965-0.74278 4.5518-2.7762 2.22-7.4232 1.6294-10.605-0.71761-1.4122-0.94134-2.9883-2.3871-4.8119-1.7052-1.4753 0.54002-2.3531 3.3028-1.5531 4.5674 0.72552 1.3022 2.1233 2.0241 3.3281 2.8116 4.3189 2.4129 9.6291 2.7548 14.334 1.4006 3.5784-1.1419 6.7826-4.126 7.2777-8.0449 0.36684-2.9038-0.62645-5.1443-2.3247-7.0603-3.0653-3.4586-10.292-4.7791-12.619-6.2636-1.2579-0.80218-2.6-2.3254-2.2494-3.7401 0.44222-1.7843 3.2021-2.7571 4.7042-2.8157 1.8508-0.072 3.2038 0.37182 4.7465 1.4057 1.3689 0.91737 3.1561 2.9328 4.8433 2.3327 1.3644-0.48533 2.2249-2.5308 1.877-3.9472-0.63552-2.5872-3.9478-3.98-6.369-4.7613-1.688-0.50067-3.4506-0.72525-5.2083-0.72427z"/><path d="m426.65 239.62c-0.76313 0-1.9045 0.26725-2.4407 0.80161-0.51568 0.51386-0.77363 1.2326-0.77363 2.1575v28.609c0 0.84258 0.29975 1.5626 0.89791 2.1585 0.53624 0.53436 1.6764 0.80057 2.4394 0.80057 0.76314 0 1.8831-0.24591 2.378-0.73915 0.51554-0.51386 0.77367-1.254 0.77367-2.2199v-18.008c0-1.7469 0.31978-3.1325 1.1453-4.4081 0.66022-1.0202 1.7539-1.8685 2.845-2.4082 1.1897-0.5884 2.5431-0.93201 3.8675-0.83257 1.4517 0.10905 3.0002 0.6466 4.034 1.6681 1.3856 1.3691 2.2893 2.8615 2.2893 5.369v18.62c0 0.86305 0.26816 1.5213 0.80437 1.9736 0.53625 0.49325 1.6662 0.73915 2.4088 0.73915 0.7837 0 1.9239-0.22579 2.4393-0.67787 0.55694-0.49327 0.83525-1.1718 0.83525-2.0348v-18.744c0-2.7334-0.54532-5.0964-1.6384-7.0902-1.0932-1.9524-2.5583-3.4013-4.3938-4.3466-1.7117-0.92481-3.6503-1.3876-5.8158-1.3876-1.8768 0-3.5501 0.39283-5.1356 1.14-1.3628 0.64228-2.5503 1.4222-3.5609 2.7786l-0.12429-0.12253v-1.3263c0-0.92486-0.27838-1.1645-0.8351-1.6988-0.49511-0.51386-1.6351-0.771-2.4395-0.771z"/><path d="m493.19 228.75c-6.1739 9e-3 -12.376 2.9182-15.836 8.0478-3.2906 4.6842-4.4733 10.569-4.2931 16.193 0.34606 6.0841 2.6251 12.249 7.1972 16.473 3.6689 3.4293 8.8201 4.9458 13.809 4.6592 4.8194-0.0639 9.9374-1.4327 13.204-5.145 2.9452-2.8549 4.1967-6.8733 4.7404-10.81 0.31035-2.5134 0.60248-5.3487 0.12914-7.8538-0.4229-1.9513-2.5745-2.5114-4.3325-2.3377-3.2872 0.0271-7.1946-0.0549-10.478 0.0421-2.4923 0.50108-2.4677 5.5348 0.19232 5.7819 2.889 0.0864 5.294 0.0147 8.1859 0.0381 0.12554 3.8015-0.19217 7.4191-2.8011 10.44-4.4659 5.1706-12.64 5.0002-17.257 1.2464-4.4946-3.6545-5.6471-9.2692-5.615-14.855 0.26028-5.3737 1.938-9.89 6.4375-13.294 3.8772-2.8911 8.2226-3.0898 12.672-1.4088 2.2647 0.95139 4.389 2.8112 6.4941 4.0089 1.8981 0.93282 4.5709-1.71 3.8286-3.8539-1.1904-2.3731-3.8882-4.6204-6.3092-5.5798-3.1733-1.2071-6.5676-1.8053-9.9668-1.7914z"/><path d="m531.64 239.62c-1.7505 0.15869-2.9799 0.61078-4.268 1.3611-1.0224 0.59546-1.8798 1.3544-2.5987 2.4064-0.24015 0.35078-0.46378 0.22179-0.67229 0.5918h-0.12555v-1.7661c0-0.90433-0.27864-1.2257-0.83886-1.6984-0.54003-0.5137-1.6886-0.77169-2.4575-0.77169-0.76734 0-1.9076 0.25799-2.4273 0.77169-0.54004 0.47274-0.80756 1.1611-0.80756 2.0654v28.486c0 0.92484 0.26752 1.6645 0.80756 2.2196 0.60232 0.49321 1.7832 0.75575 2.5504 0.7406 0.84303-0.0164 1.7408-0.34369 2.396-0.7406 0.54951-0.56984 0.77731-1.4403 0.77731-2.0965v-16.278c0-1.973 0.38662-3.1685 1.154-4.5661 0.7689-1.418 1.89-2.4159 3.3639-3.238 0.6024-0.28771 1.4119-0.55491 2.4298-0.80152 1.2873-0.34948 2.2637-0.72865 2.9282-1.1396 0.64441-0.43163 0.96441-1.7421 0.96441-2.7081 0-0.78098-0.32-1.4495-0.96441-2.0045-0.58058-0.55483-1.3216-0.91325-2.2112-0.83261z"/><path d="m550.62 239.62c-5.3393-0.0964-10.537 3.0998-12.873 7.9188-2.4975 4.7598-2.7361 10.537-1.2333 15.645 1.5882 5.3716 6.1886 10.036 11.876 10.696 4.0948 0.5781 8.5104-0.41746 11.6-3.2783 4.6547-4.0405 6.1719-10.671 5.4192-16.607-0.64261-5.7523-4.1996-11.435-9.7619-13.483-1.6073-0.59069-3.3201-0.8586-5.0276-0.89176zm0 6.032c2.6757-6e-3 5.3802 2.1203 6.6782 4.4674 2.0231 3.6582 2.1952 8.7784 0.37975 12.545-1.299 2.6947-4.2024 5.2048-7.1821 5.3594-2.3445 0.12165-4.8409-1.5934-6.0545-3.6094-2.425-4.0284-2.8272-9.889-0.73073-14.099 1.2406-2.491 4.1335-4.6575 6.9094-4.6632z"/><path d="m574.19 239.62c-0.77494 0-1.9098 0.25664-2.4338 0.77054-0.54412 0.47272-0.81622 1.1612-0.81622 2.0654v18.497c0 2.4458 0.47064 4.6346 1.4131 6.5666 0.96311 1.9524 2.4368 3.5346 4.4241 4.7472 1.9683 1.1716 4.4564 1.7584 7.4708 1.7584 3.1381 0 5.7543-0.60673 7.8461-1.8193 1.9883-1.1714 3.4844-2.7746 4.4896-4.8093 0.94104-1.8703 1.4119-4.0182 1.4119-6.4435v-18.497c0-0.90421-0.28379-1.5927-0.84834-2.0654-0.54412-0.5139-1.2036-0.77054-1.978-0.77054-0.19372 0-1.3554 0.0148-1.5337 0.0479-0.53251 0.0964-0.99547 0.33737-1.3869 0.72271-0.54412 0.47273-0.81859 1.1612-0.81859 2.0654v17.395c0 5.6108-1.7008 8.417-7.0559 8.417-2.6159 0-3.5963-0.76085-4.8933-2.2817-1.3191-1.4798-1.9791-3.5251-1.9791-6.1353v-17.395c0-0.90421-0.28101-1.5927-0.8472-2.0654-0.54412-0.51386-1.6898-0.77054-2.4647-0.77054z"/><path d="m608.58 239.62c-0.72722 0-1.8513 0.25664-2.3916 0.77054-0.52017 0.53431-0.77961 1.2636-0.77961 2.1884v41.102c0 0.98647 0.28134 1.7473 0.84189 2.2817 0.58091 0.63707 1.7254 0.95444 2.4527 0.95444 0.76922 0 1.9256-0.29756 2.4863-0.89354 0.49844-0.55484 0.74839-1.3762 0.74839-2.4656v-13.699h0.12481c2.3064 3.0213 4.4922 4.1654 8.2733 4.1654 2.8267 0 5.3395-0.77123 7.5415-2.3127 2.1819-1.5003 3.8883-3.5866 5.1139-6.2584 1.1836-2.5897 1.7763-5.5393 1.7763-8.8482 0-2.4869-0.36405-4.7784-1.0913-6.8748-0.66501-2.0347-1.8074-3.8221-3.1777-5.3636-1.3722-1.562-2.8479-2.7439-4.6762-3.5455-1.7675-0.80159-3.8026-1.2018-6.1092-1.2018-3.8957 0.0579-5.7759 1.3969-7.3525 4.0198-0.10397 0.17481-0.20426 0.35607-0.29817 0.54234h-0.12481v-1.7262c0-0.90421-0.27023-1.5927-0.81067-2.0654-0.5809-0.5139-1.7578-0.77054-2.5473-0.77054zm11.634 5.7865c1.9952 0.0616 2.7985 0.68937 4.1288 1.8815 1.3297 1.1919 2.306 2.7124 2.9303 4.562 0.64319 1.8496 0.96637 2.8642 0.96637 5.0016-0.0589 2.4458-0.18161 3.4119-0.84679 5.0972-0.72705 1.8497-1.7451 3.2988-3.0551 4.347-1.2274 1.0758-2.5063 2.0431-4.0112 1.9722-1.9755-0.0931-4.9139-1.2436-6.6395-3.5455-1.7037-2.2197-2.3104-4.1496-2.3104-7.9928 0.0597-2.2197 0.40574-3.2143 1.0287-4.9408 0.64474-1.9114 1.6831-3.4527 3.1174-4.6242 1.4328-1.1715 2.3426-1.7584 4.6911-1.7584z"/><path d="m402.71 239.56c-5.3393-0.0964-10.537 3.0998-12.873 7.9188-2.4975 4.7598-2.7362 10.537-1.2333 15.645 1.5882 5.3716 6.1886 10.036 11.876 10.696 4.0949 0.57814 8.5104-0.41747 11.6-3.2783 4.6546-4.0405 6.172-10.671 5.4192-16.607-0.64261-5.7523-4.1995-11.435-9.7619-13.483-1.6073-0.59067-3.3201-0.85859-5.0276-0.89172zm0 6.032c2.6756-6e-3 5.3802 2.1203 6.6782 4.4674 2.0231 3.6582 2.1953 8.7784 0.37977 12.545-1.299 2.6947-4.2024 5.2048-7.1821 5.3594-2.3445 0.12166-4.8409-1.5934-6.0545-3.6094-2.425-4.0284-2.8272-9.889-0.73072-14.099 1.2406-2.4911 4.1335-4.6575 6.9093-4.6632z"/><path d="m333.39 239.62c1.8382-0.17318 3.4752 1.362 3.1712 3.2301-9e-3 9.4382 0.0179 18.877-0.013 28.315 7e-3 2.7597-4.1069 3.8974-5.6848 1.7608-0.41384-0.97695-0.45695-2.069-0.83129-3.0665-1.161 1.1593-2.3166 2.6653-3.9557 3.3358-3.2621 1.3433-7.1158 1.0244-10.274-0.47133-5.0654-2.4589-7.9497-7.9789-8.4592-13.412-0.56267-5.2315 0.43179-10.975 4.1282-14.945 2.4629-2.9933 6.2807-4.7011 10.144-4.7367 3.1349 0.0338 6.7513 1.0812 8.2924 4.0622 0.32923-0.2594 0.19047-1.0564 0.34069-1.5214-0.033-1.6592 1.6575-2.575 3.142-2.5514zm-11.634 5.7865c-2.2681-0.0897-4.4446 1.0181-5.7624 2.8506-2.2632 2.8165-2.7307 6.5631-2.4553 10.055 0.0918 3.9712 2.2641 8.2324 6.1454 9.6799 2.8177 0.85715 5.8694-0.51712 7.8995-2.46 2.0397-2.0413 3.0155-4.9193 2.9934-7.77 0.19761-3.0198-0.77701-6.0017-2.2136-8.6238-1.3117-2.2163-3.7364-3.8909-6.3907-3.7305z"/></g></g></svg>
