<?xml version="1.0" encoding="UTF-8" standalone="no"?>
<!-- Created with Inkscape (http://www.inkscape.org/) -->

<svg
   version="1.1"
   id="svg2"
   width="2088.7466"
   height="573.38666"
   viewBox="0 0 2088.7466 573.38666"
   sodipodi:docname="bidfood-seeklogo.eps"
   xmlns:inkscape="http://www.inkscape.org/namespaces/inkscape"
   xmlns:sodipodi="http://sodipodi.sourceforge.net/DTD/sodipodi-0.dtd"
   xmlns="http://www.w3.org/2000/svg"
   xmlns:svg="http://www.w3.org/2000/svg">
  <defs
     id="defs6" />
  <sodipodi:namedview
     id="namedview4"
     pagecolor="#ffffff"
     bordercolor="#000000"
     borderopacity="0.25"
     inkscape:showpageshadow="2"
     inkscape:pageopacity="0.0"
     inkscape:pagecheckerboard="0"
     inkscape:deskcolor="#d1d1d1" />
  <g
     id="g8"
     inkscape:groupmode="layer"
     inkscape:label="ink_ext_XXXXXX"
     transform="matrix(1.3333333,0,0,-1.3333333,0,573.38667)">
    <g
       id="g10"
       transform="scale(0.1)">
      <path
         d="m 2251.14,1541.21 c 0,1336.75 3100.34,2420.43 6924.77,2420.43 1653.59,0 3171.79,-202.74 4362.69,-540.73 -1270.2,537.05 -3190.6,879.46 -5340.09,879.46 -3824.43,0 -6924.53,-1083.93 -6924.53,-2420.68 C 1273.98,1120.99 2272.74,444.031 3835.8,0 2845.88,418.75 2251.14,955.559 2251.14,1541.21"
         style="fill:#1b1c42;fill-opacity:1;fill-rule:evenodd;stroke:none"
         id="path12" />
      <path
         d="M 2725.78,3847.68 C 1092.27,3452.74 0,2734.54 0,1913.99 0,1080.18 1026.49,394.129 2703.19,3.37109 1394.18,496.98 680.156,1149.89 680.156,1919.63 c 0,754.28 782.754,1436.41 2045.624,1928.05"
         style="fill:#7eca2b;fill-opacity:1;fill-rule:nonzero;stroke:none"
         id="path14" />
      <path
         d="m 4166.01,1792.68 v 700.28 h 383.89 c 105.54,0 196.85,-34.85 271.72,-103.33 74.62,-68.24 112.41,-151.2 112.41,-246.93 0,-95.48 -37.79,-178.45 -112.41,-246.68 -74.87,-68.48 -166.18,-103.34 -271.72,-103.34 z M 5049.15,715.871 C 4948.76,624.07 4825.54,577.68 4682.69,577.68 h -516.68 v 943.28 h 516.68 c 142.85,0 266.07,-46.63 366.46,-138.19 99.66,-91.55 150.47,-203.72 150.47,-333.57 0,-129.598 -50.81,-241.77 -150.47,-333.329 m 207.66,860.569 c -65.05,58.41 -135.98,105.79 -211.58,140.89 121.5,117.81 183.11,260.92 183.11,425.37 0,171.57 -66.77,319.83 -198.82,440.59 -131.57,120.28 -293.08,181.39 -479.62,181.39 h -531.17 c -40.01,0 -74.86,-13.25 -103.33,-39.52 -28.97,-26.51 -43.69,-58.91 -43.69,-96.46 V 441.699 c 0,-37.558 14.72,-69.961 43.69,-96.469 28.47,-26.011 63.32,-39.269 103.33,-39.269 h 663.96 c 222.87,0 415.8,72.898 573.38,216.98 157.83,144.579 237.85,321.547 237.85,526.259 0,204.71 -79.78,382.17 -237.11,527.24"
         style="fill:#1b1c42;fill-opacity:1;fill-rule:nonzero;stroke:none"
         id="path16" />
      <path
         d="m 5891.75,2552.07 c -48.84,0 -91.55,-16.45 -126.65,-48.6 -35.59,-32.65 -53.76,-72.17 -53.76,-117.57 0,-45.66 18.17,-85.18 53.76,-117.82 35.1,-32.16 77.81,-48.6 126.65,-48.6 48.85,0 91.56,16.44 126.66,48.6 35.59,32.64 53.75,72.16 53.75,117.82 0,45.4 -18.16,84.92 -53.75,117.57 -35.1,32.15 -77.81,48.6 -126.66,48.6"
         style="fill:#1b1c42;fill-opacity:1;fill-rule:nonzero;stroke:none"
         id="path18" />
      <path
         d="m 5891.75,2035.68 c -40.01,0 -74.86,-13.25 -103.58,-39.52 -28.96,-26.51 -43.69,-58.9 -43.69,-96.46 V 441.699 c 0,-37.558 14.73,-69.961 43.69,-96.457 28.72,-26.023 63.57,-39.281 103.58,-39.281 40.01,0 74.86,13.258 103.58,39.281 28.97,26.496 43.69,59.149 43.69,96.457 V 1899.7 c 0,37.56 -14.72,69.95 -43.69,96.46 -28.72,26.27 -63.57,39.52 -103.58,39.52"
         style="fill:#1b1c42;fill-opacity:1;fill-rule:nonzero;stroke:none"
         id="path20" />
      <path
         d="m 7233.48,577.66 c -179.18,0 -333.82,58.66 -459.98,174.02 -125.92,114.879 -189.49,256.01 -189.49,418.99 0,163.23 63.57,304.12 189.49,419.24 126.16,115.37 280.8,174.03 459.98,174.03 179.18,0 333.82,-58.66 459.98,-174.03 125.92,-115.12 189.74,-256.01 189.74,-419.24 0,-162.98 -63.82,-304.111 -189.74,-418.99 C 7567.3,636.32 7412.66,577.66 7233.48,577.66 m 796.75,2190.19 c -40.01,0 -74.87,-13.5 -103.58,-39.52 -28.97,-26.51 -43.45,-59.15 -43.45,-96.46 v -833.32 c -180.16,157.34 -398.62,237.11 -649.72,237.11 -259.2,0 -483.55,-84.93 -667.15,-252.82 -183.6,-168.14 -276.87,-374.07 -276.87,-612.17 0,-237.838 93.27,-443.779 276.87,-611.908 183.6,-167.891 407.95,-252.821 667.15,-252.821 259.2,0 483.79,84.93 667.15,252.821 183.6,168.129 276.87,374.07 276.87,611.908 v 1461.2 c 0,37.31 -14.73,69.95 -43.69,96.46 -28.72,26.02 -63.57,39.52 -103.58,39.52"
         style="fill:#1b1c42;fill-opacity:1;fill-rule:nonzero;stroke:none"
         id="path22" />
      <path
         d="M 9390.71,1944.54 H 9005.1 v 76.83 c 0,317.37 168.87,471.52 516.68,471.52 40.01,0 74.87,13.25 103.58,39.52 28.97,26.51 43.7,58.91 43.7,96.46 0,37.31 -14.73,69.71 -43.7,96.47 -28.71,26.01 -63.57,39.27 -103.58,39.27 -538.28,0 -810.98,-250.12 -810.98,-743.24 v -76.83 h -118.55 c -40.01,0 -74.87,-13.25 -103.59,-39.52 -28.96,-26.51 -43.69,-58.9 -43.69,-96.46 0,-37.55 14.73,-69.71 43.69,-96.22 28.72,-26.26 63.58,-39.51 103.59,-39.51 H 8710.8 V 441.621 c 0,-37.301 14.48,-69.711 43.45,-96.223 28.71,-26.257 63.57,-39.507 103.58,-39.507 40.01,0 74.86,13.25 103.58,39.507 28.96,26.512 43.69,58.922 43.69,96.223 V 1672.83 h 385.61 c 40.01,0 74.86,13.25 103.58,39.51 28.97,26.51 43.69,58.91 43.69,96.22 0,37.56 -14.72,69.95 -43.69,96.46 -28.72,26.27 -63.57,39.52 -103.58,39.52"
         style="fill:#7eca2b;fill-opacity:1;fill-rule:nonzero;stroke:none"
         id="path24" />
      <path
         d="m 10553.8,577.66 c -179.2,0 -333.8,58.66 -460,174.02 -125.9,114.879 -189.48,256.01 -189.48,418.99 0,163.23 63.58,304.12 189.48,419.24 126.2,115.37 280.8,174.03 460,174.03 179.2,0 333.8,-58.66 460,-174.03 125.9,-115.12 189.7,-256.01 189.7,-419.24 0,-162.98 -63.8,-304.111 -189.7,-418.99 -126.2,-115.36 -280.8,-174.02 -460,-174.02 m 667.1,1205.18 c -183.6,167.89 -407.9,252.82 -667.1,252.82 -259.2,0 -483.5,-84.93 -667.15,-252.82 -183.6,-168.14 -276.87,-374.07 -276.87,-612.17 0,-237.838 93.27,-443.779 276.87,-611.908 183.65,-167.891 407.95,-252.821 667.15,-252.821 259.2,0 483.5,84.93 667.1,252.821 183.6,168.129 276.9,374.07 276.9,611.908 0,238.1 -93.3,444.03 -276.9,612.17"
         style="fill:#7eca2b;fill-opacity:1;fill-rule:nonzero;stroke:none"
         id="path26" />
      <path
         d="m 12637.7,577.66 c -179.2,0 -333.8,58.66 -460,174.02 -125.9,114.879 -189.5,256.01 -189.5,418.99 0,163.23 63.6,304.12 189.5,419.24 126.2,115.37 280.8,174.03 460,174.03 179.2,0 333.8,-58.66 460,-174.03 125.9,-115.12 189.5,-256.01 189.5,-419.24 0,-162.98 -63.6,-304.111 -189.5,-418.99 -126.2,-115.36 -280.8,-174.02 -460,-174.02 m 667.1,1205.18 c -183.6,167.89 -407.9,252.82 -667.1,252.82 -259.2,0 -483.6,-84.93 -667.2,-252.82 -183.6,-168.14 -276.8,-374.07 -276.8,-612.17 0,-237.838 93.2,-443.779 276.8,-611.908 183.6,-167.891 408,-252.821 667.2,-252.821 259.2,0 483.5,84.93 667.1,252.821 183.6,168.129 276.9,374.07 276.9,611.908 0,238.1 -93.3,444.03 -276.9,612.17"
         style="fill:#7eca2b;fill-opacity:1;fill-rule:nonzero;stroke:none"
         id="path28" />
      <path
         d="m 14721.6,577.66 c -179.2,0 -333.8,58.66 -460,174.02 -125.9,114.879 -189.5,256.01 -189.5,418.99 0,163.23 63.6,304.12 189.5,419.24 126.2,115.37 280.8,174.03 460,174.03 179.2,0 333.8,-58.66 460,-174.03 125.9,-115.12 189.4,-256.01 189.4,-419.24 0,-162.98 -63.5,-304.111 -189.4,-418.99 -126.2,-115.36 -280.8,-174.02 -460,-174.02 m 900.3,2150.67 c -28.7,26.02 -63.6,39.52 -103.6,39.52 -40,0 -74.8,-13.5 -103.3,-39.52 -29,-26.51 -44,-59.15 -44,-96.46 v -833.32 c -179.9,157.34 -398.3,237.11 -649.4,237.11 -259.2,0 -483.6,-84.93 -666.9,-252.82 -183.9,-168.14 -277.1,-374.07 -277.1,-612.17 0,-237.838 93.2,-443.779 277.1,-611.908 183.3,-167.891 407.7,-252.821 666.9,-252.821 259.2,0 483.5,84.93 667.1,252.821 183.6,168.129 276.9,374.07 276.9,611.908 v 1461.2 c 0,37.31 -14.7,69.95 -43.7,96.46"
         style="fill:#7eca2b;fill-opacity:1;fill-rule:nonzero;stroke:none"
         id="path30" />
    </g>
  </g>
</svg>
