<svg xmlns="http://www.w3.org/2000/svg" viewBox="0 0 371.14 42.92"><defs><style>.red{fill:#e31f26}</style></defs><g id="mitsubishi" data-name="mitsubishi"><g id="logo"><path class="light" d="M267.83 37.4h1.85a18.19 18.19 0 0 0 2.79-.28c2.22-.46 3.46-1.54 3.46-3.55 0-2.76-2.28-3.8-6.25-3.8h-6.95v12.75h5.1V37.4Zm2.06-2.4h-2.06v-2.94h2.06a1.42 1.42 0 0 1 1.47 1.48 1.48 1.48 0 0 1-1.47 1.46ZM157.04 29.76h5.08v12.76h-5.08zM221.06 42.79c5.65 0 6.79-3 6.79-5.91v-7.12h-5.1v8.45a1.7 1.7 0 1 1-3.39 0v-8.45h-5.1v7.12c0 2.95 1.14 5.91 6.8 5.91ZM288.42 42.52v-2.56h-5.82v-2.67h5.31v-2.45h-5.31v-2.63h5.7v-2.45h-10.76v12.76h10.88zM121.72 42.52v-2.56h-5.81v-2.67h5.3v-2.45h-5.3v-2.63h5.69v-2.45h-10.76v12.76h10.88zM212.41 42.52v-2.56h-5.82v-2.67h5.31v-2.45h-5.31v-2.63h5.7v-2.45h-10.76v12.76h10.88zM191.98 42.52v-2.56h-5.81v-2.67h5.3v-2.45h-5.3v-2.63h5.69v-2.45h-10.75v12.76h10.87zM60.88 29.76l-4.54 12.76h5l.44-1.69h3.93l.44 1.69h5l-4.54-12.76Zm1.61 8.38 1.26-4.74L65 38.14ZM179.06 42.52V29.76h-5.08v5.98l-3.97-5.98h-5.84v12.76h5.08v-6.01l3.99 6.01h5.82zM87.22 42.52V29.76h-5.09v5.98l-3.96-5.98h-5.85v12.76h5.09v-6.01l3.98 6.01h5.83zM138.66 42.52V29.76h-5.09v5.98l-3.96-5.98h-5.85v12.76h5.09v-6.01l3.99 6.01h5.82zM229.86 29.76v12.76H235V38.6l3 3.92h6l-4.45-4.8c2.22-.47 3.52-1.89 3.52-3.9 0-2.76-2.34-4.06-6.32-4.06Zm6.76 5.56H235v-2.83h1.67A1.42 1.42 0 0 1 238.1 34a1.39 1.39 0 0 1-1.48 1.32ZM89.24 29.76v12.76h5.64c4.59 0 8.4-2 8.4-6.42s-4-6.34-8.13-6.34Zm5.1 9.7v-7c2.74 0 3.46 1.86 3.46 3.32 0 1.88-.61 3.59-3.46 3.68ZM155 40.06a8.68 8.68 0 0 1-6.47 2.86c-5.08 0-8.13-3.07-8.13-6.86s3.64-6.86 8.13-6.86a9.34 9.34 0 0 1 4.94 1.25v2.39a11.65 11.65 0 0 0-4.26-.82c-2 0-3.7 1.44-3.7 4.25 0 2.31 1.39 3.75 2.86 3.75a7.23 7.23 0 0 0 3-.63v-1.52h-1.63V35.3H155ZM252.83 29.19c-4.23 0-8.31 2-8.31 6.76 0 4.57 3.74 6.74 8.31 6.83 4.57-.09 8.31-2.26 8.31-6.83 0-4.76-4.08-6.76-8.31-6.76Zm0 10.24c-2 0-2.71-2-2.71-3.77 0-1.39.76-3.45 2.71-3.45s2.72 2.06 2.72 3.45c0 1.75-.74 3.77-2.72 3.77ZM139.61 14.33h5.08v12.76h-5.08zM75.5 14.33h5.08v12.76H75.5zM175.88 14.33h5.08v12.76h-5.08zM72.6 14.33h-5.58L65.1 18.2l-1.93-3.87h-5.58l-1.25 12.76h5.04l.51-6.42 3.21 6.42 3.21-6.42.51 6.42h5.04L72.6 14.33zM190.31 14.33v2.97h3.17v9.79h5.08V17.3h3.16v-2.97h-11.41zM82.48 14.33v2.97h3.16v9.79h5.09V17.3h3.16v-2.97H82.48zM106.64 18.06v-2.81a13.1 13.1 0 0 0-5.55-1.19c-4.72 0-5.91 2.38-5.91 3.91 0 2.09 1.47 3.24 3.15 3.83 1.87.65 4 .47 4 1.42 0 .58-.7.92-1.67.92a10.68 10.68 0 0 1-5-1.51V26a12.42 12.42 0 0 0 5.28 1.34c4.45 0 6.42-1.84 6.42-4.18s-1.7-3.85-4-4.53c-1.53-.47-3.24-.3-3.24-1.16 0-.48.58-.83 1.62-.83a13.3 13.3 0 0 1 4.9 1.42ZM157.84 18.06v-2.81a13.06 13.06 0 0 0-5.55-1.19c-4.71 0-5.9 2.38-5.9 3.91 0 2.09 1.47 3.24 3.14 3.83 1.87.65 4 .47 4 1.42 0 .58-.71.92-1.68.92a10.68 10.68 0 0 1-4.95-1.51V26a12.42 12.42 0 0 0 5.28 1.34c4.46 0 6.42-1.84 6.42-4.18s-1.7-3.85-4-4.53c-1.53-.47-3.24-.3-3.24-1.16 0-.48.58-.83 1.62-.83a13.25 13.25 0 0 1 4.86 1.42ZM210.55 27.35c5.65 0 6.79-3 6.79-5.9v-7.12h-5.1v8.45a1.7 1.7 0 1 1-3.39 0v-8.45h-5.1v7.12c0 2.95 1.14 5.9 6.8 5.9ZM115.8 27.35c5.66 0 6.79-3 6.79-5.9v-7.12h-5.1v8.45a1.7 1.7 0 1 1-3.39 0v-8.45H109v7.12c0 2.95 1.14 5.9 6.8 5.9ZM131.11 27.09c4.24 0 6.66-.95 6.66-3.45a3.36 3.36 0 0 0-2.77-3.19 2.88 2.88 0 0 0 2-2.72c0-2.21-2.08-3.4-5.59-3.4h-6.83v12.76ZM131 16.71a1.33 1.33 0 0 1 1.4 1.35 1.31 1.31 0 0 1-1.4 1.25h-1.33v-2.6Zm0 7.85h-1.26v-2.63h1.41a1.34 1.34 0 0 1 1.32 1.33 1.3 1.3 0 0 1-1.54 1.3ZM241.66 27.09c4.25 0 6.67-.95 6.67-3.45a3.36 3.36 0 0 0-2.73-3.19 2.88 2.88 0 0 0 2-2.72c0-2.21-2.08-3.4-5.59-3.4h-6.84v12.76Zm-.14-10.38a1.3 1.3 0 1 1 0 2.6h-1.34v-2.6Zm0 7.85h-1.27v-2.63h1.42a1.34 1.34 0 0 1 1.33 1.33 1.3 1.3 0 0 1-1.51 1.3ZM290.82 14.33v4.72h-3.38v-4.72h-5.06v12.76h5.06v-4.88h3.38v4.88h5.06V14.33h-5.06zM168.8 14.33v4.72h-3.38v-4.72h-5.06v12.76h5.06v-4.88h3.38v4.88h5.06V14.33h-5.06zM355.13 27.09v-2.57h-5.81v-2.66h5.31v-2.45h-5.31v-2.63h5.69v-2.45h-10.75v12.76h10.87zM302 14.33l-4.54 12.76h5l.44-1.69h3.93l.44 1.69h5l-4.54-12.76Zm1.61 8.38 1.23-4.71 1.26 4.74ZM219.37 14.33v12.75h5.09v-3.92l3 3.92h6.12l-4.45-4.8c2.22-.46 3.52-1.88 3.52-3.9 0-2.76-2.34-4-6.31-4Zm6.76 5.55h-1.67v-2.82h1.67a1.42 1.42 0 0 1 1.48 1.47 1.38 1.38 0 0 1-1.48 1.35ZM357 14.33v12.75h5.1v-3.92l3 3.92h6.11l-4.45-4.8c2.23-.46 3.53-1.88 3.53-3.9 0-2.76-2.34-4-6.32-4Zm6.77 5.55h-1.67v-2.82h1.67a1.41 1.41 0 0 1 1.47 1.47 1.37 1.37 0 0 1-1.51 1.35ZM313.4 14.33v12.75h5.1v-3.92l3 3.92h6.12l-4.45-4.8c2.23-.46 3.53-1.88 3.53-3.9 0-2.76-2.34-4-6.32-4Zm6.77 5.55h-1.67v-2.82h1.67a1.41 1.41 0 0 1 1.47 1.47 1.37 1.37 0 0 1-1.47 1.35ZM342.28 24.62a8.64 8.64 0 0 1-6.47 2.86c-5.08 0-8.13-3.07-8.13-6.85s3.64-6.86 8.13-6.86a9.24 9.24 0 0 1 4.94 1.23v2.4a11.91 11.91 0 0 0-4.27-.82c-2 0-3.7 1.44-3.7 4.26 0 2.3 1.4 3.75 2.87 3.75a7.07 7.07 0 0 0 3-.64v-1.51h-1.63v-2.58h5.22ZM280.22 26a8.17 8.17 0 0 1-5.22 1.4c-5.12 0-7.84-2.94-7.84-6.73 0-4 3.19-6.69 7.63-6.9a9.36 9.36 0 0 1 5.1 1.1v2.56a9.06 9.06 0 0 0-5.06-.54 3.37 3.37 0 0 0-2.54 3.86c.26 2.22 1.26 3 2.92 3.26s2.74-.29 5-1.26ZM257.71 13.76c-4.23 0-8.31 2-8.31 6.75 0 4.57 3.74 6.75 8.31 6.83 4.58-.08 8.31-2.26 8.31-6.83-.02-4.76-4.08-6.75-8.31-6.75Zm0 10.23c-2 0-2.71-2-2.71-3.77 0-1.38.76-3.45 2.71-3.45s2.72 2.07 2.72 3.45c0 1.78-.74 3.78-2.72 3.78Z"/><path class="red light" d="m24.55 28.35 8.18-14.17L24.55 0l-8.18 14.17 8.18 14.18zM24.55 28.35l8.18 14.17H49.1l-8.18-14.18-16.37.01zM24.55 28.35l-16.37-.01L0 42.52h16.37l8.18-14.17z"/></g></g></svg>