<svg xmlns="http://www.w3.org/2000/svg" style="text-align:center" viewBox="0 0 400 75.48"><path d="M180.88 0h-35.54c-4.88 0-9.41 3.59-10.12 8l-9.57 59.48c-.71 4.42 2.66 7.99 7.54 7.99h35.53c4.88 0 9.4-3.57 10.12-7.99l2.72-16.94a.91.91 0 0 0-.91-1.07h-15.7c-.6 0-1.17.48-1.27 1.07l-1.25 7.8c-.23 1.42-1.68 2.58-3.26 2.58h-11.75c-1.57 0-2.65-1.16-2.43-2.58l6.64-41.21c.23-1.42 1.7-2.57 3.26-2.57h11.75c1.57 0 2.66 1.15 2.43 2.57l-1.24 7.8a.91.91 0 0 0 .9 1.08h15.7a1.32 1.32 0 0 0 1.27-1.07L188.41 8c.71-4.42-2.66-8-7.53-8ZM116.9.03H87.73C82.85.02 77.71 3.59 76.23 8L53.9 74.44c-.2.57.14 1.04.74 1.04h15.7c.6 0 1.25-.47 1.44-1.04L79.3 52a1.63 1.63 0 0 1 1.45-1.04h17.8a.9.9 0 0 1 .92 1.08l-3.6 22.34a.91.91 0 0 0 .93 1.08h15.69c.6 0 1.16-.48 1.26-1.08l10.69-66.38c.7-4.42-2.67-8-7.55-8zm-11.8 17.12-2.93 18.2c-.1.6-.67 1.08-1.27 1.08H85.65c-.6 0-.93-.47-.74-1.04l6.12-18.24a4.14 4.14 0 0 1 3.72-2.58h7.92c1.57 0 2.66 1.15 2.43 2.58zm137.47-.38L245.1 1.1a.91.91 0 0 0-.92-1.07h-46.62c-.6 0-1.17.48-1.27 1.07l-2.53 15.67a.91.91 0 0 0 .92 1.09h13a.9.9 0 0 1 .91 1.07l-8.92 55.47a.91.91 0 0 0 .93 1.08h15.69c.6 0 1.16-.48 1.26-1.08l8.92-55.46c.1-.6.67-1.08 1.27-1.08h13.56c.6 0 1.17-.49 1.27-1.08zM325.04.01H289.5c-4.88 0-9.4 3.55-10.11 7.9l-9.58 58.83c-.7 4.37 2.67 7.91 7.54 7.91h35.54c4.88 0 9.4-3.54 10.12-7.9l9.57-58.83c.71-4.36-2.66-7.9-7.54-7.9zm-11.8 16.94L306.6 57.7c-.23 1.4-1.69 2.55-3.26 2.55H291.6c-1.58 0-2.67-1.14-2.44-2.55l6.63-40.76c.23-1.4 1.7-2.55 3.27-2.55h11.74c1.57 0 2.66 1.14 2.43 2.55zM399.06.02h-15.7c-.6 0-1.17.48-1.26 1.07l-5.56 34.55c-.1.6-.41.64-.7.11L357.34.98a2.01 2.01 0 0 0-1.61-.96h-9.97a1.32 1.32 0 0 0-1.26 1.07l-11.8 73.3a.91.91 0 0 0 .92 1.08h15.7c.6 0 1.17-.48 1.26-1.08l5.56-34.53c.1-.6.4-.65.69-.12l18.53 34.77a2.01 2.01 0 0 0 1.6.97h9.98a1.32 1.32 0 0 0 1.26-1.09L400 1.1a.91.91 0 0 0-.91-1.07zm-130.25 0h-15.69c-.6 0-1.17.48-1.27 1.07l-11.8 73.3a.91.91 0 0 0 .91 1.08h15.7a1.32 1.32 0 0 0 1.27-1.08l11.8-73.3a.91.91 0 0 0-.92-1.07Z" style="text-align:center;fill:#001489;stroke-width:.82706648"/><path d="M58.46 0h8.58c.6 0 .94.47.75 1.04L43.14 74.43a1.63 1.63 0 0 1-1.45 1.04h-8.58c-.6 0-.94-.47-.75-1.04L57.02 1.04A1.63 1.63 0 0 1 58.46.01ZM40.5 0h5c.59 0 .93.47.74 1.04L21.59 74.43a1.63 1.63 0 0 1-1.44 1.04h-5c-.6 0-.93-.47-.74-1.04L39.05 1.04A1.63 1.63 0 0 1 40.52.01ZM28.29 1.05c.2-.57-.14-1.03-.74-1.03h-1.53c-.75 0-1.08.38-1.32 1.03L.06 74.43c-.2.58.14 1.04.74 1.04h1.54c.72 0 1.07-.34 1.3-1.04L28.29 1.04Z" style="text-align:center;fill:#62b5e5;stroke-width:.82706648"/></svg>