<svg xmlns="http://www.w3.org/2000/svg" viewBox="0 0 283 79.5"><path fill="#fff" d="M91.12 33.43s.58-2.7.04-5.35l-.12-.76a20.88 20.88 0 0 0-2.7-7c-3.79.51-7.72 1-11.63 1.5-8.59 1.17-16.35 1.33-18.98-1.33C55.25 18 57 9.64 58.75 3.53a13.92 13.92 0 0 0-4.36-2.36l-.53-.15-.8-.22-.46-.12a15.24 15.24 0 0 0-6.2-.12l-.33.07c-.6 1.47-1.88 4.86-3.7 7.99-1.8 3.12-4.14 5.98-6.83 6.38-4.63.7-10.75-6.47-16.85-13.71l-.01-.02A15.14 15.14 0 0 0 13.6 3.6s-.33.2-.79.56l-.27.21c-.81.6-1.51 1.43-2.5 2.66a9.79 9.79 0 0 0-1.57 2.6c4.5 5.2 6.37 6.9 9.7 13.57 2.57 5.19-.26 6.69-3.77 8.1C11.42 32.53.64 34.26.64 34.26a12.2 12.2 0 0 0-.46 5.5s.05.5.1.76l.1.56c.55 3.34 1.92 5.51 2.5 6.3 4.32-.5 7.6-.7 10.04-.7 9.24-.04 9.48 2.63 9 9.9-.4 6.02-4.48 16.56-5.54 18.79 0 0 .77.75 1.76 1.36a18.32 18.32 0 0 0 2.8 1.4l.56.19.6.19c1.32.45 3.85.96 6.74.83.21-.54 9.37-24.1 15.51-25.07 4.74-.75 12.13 9.12 13.51 11.06 1.56-.08 3.79-.52 5.52-1.25l.66-.3.67-.35s2.92-1.78 4.67-4.65l.1-.16c.22.27-7.79-10.35-7-15 .88-5.14 21.8-9.06 28.64-10.18" style="fill-rule:evenodd"/><path fill="#a2d39b" d="M53.94 2.35c-2.84 7.86-4.32 12.7-5.12 16.34-.5 2.37-.72 4.11-.65 5.61.12 4.3 2.7 5.53 4.91 6 2.21.47 4.72.46 7.72.33 2.97-.14 6.33-.48 9.73-.9 4.83-.59 14.36-2.1 18.99-2.83-6.9.93-14.82 1.88-21.48 1.98-2.88.03-5.53-.09-7.88-.49-2.34-.42-4.43-1-6.22-2.6a9.13 9.13 0 0 1-2.47-4 15.26 15.26 0 0 1-.65-4.43c-.04-3.82.88-7.84 1.9-11.34.36-1.17.77-2.41 1.23-3.67l.17-.47z" style="fill-rule:evenodd"/><path fill="#39b54a" d="M50.82 17.36c.02 1.5.2 2.99.65 4.43a9.13 9.13 0 0 0 2.47 4c1.8 1.6 3.88 2.18 6.22 2.6 2.35.4 5 .52 7.88.49 6.66-.1 14.57-1.05 21.48-1.98l1.4-.19a20.52 20.52 0 0 0-2.59-6.39c-3.78.51-7.7 1-11.62 1.5-8.59 1.17-16.35 1.33-18.98-1.33C55.25 18 57 9.64 58.75 3.53a13.91 13.91 0 0 0-4.36-2.36l-.16.41a71 71 0 0 0-1.5 4.44c-1.03 3.5-1.95 7.52-1.91 11.34" style="fill-rule:evenodd"/><path fill="#f49ac1" d="M22.1 78.5c2.46-6.15 6.58-15.89 10.98-22.31a28.63 28.63 0 0 1 4.9-5.71 8.36 8.36 0 0 1 5.7-2.2c2.2 0 3.81.67 5.62 1.65 1.8 1 3.49 2.28 5.05 3.65 3.11 2.74 9.03 10.5 9.03 10.5s-5.89-8.1-9.44-11.94c-1.79-1.92-3.65-3.96-5.54-5.4a18.4 18.4 0 0 0-2.94-1.86A8.21 8.21 0 0 0 42 44c-.43 0-.9.04-1.4.17-1.74.5-2.56 1.44-3.44 2.39-1.48 1.71-2.83 4.21-4.28 6.96C28.86 61.2 24.5 72.28 22.1 78.5z" style="fill-rule:evenodd"/><path fill="#ec008c" d="M57.86 65.32c1.56-.08 3.79-.52 5.52-1.25 0 0-5.91-7.75-9.03-10.5a28.99 28.99 0 0 0-5.05-3.64c-1.8-.98-3.42-1.65-5.63-1.66a8.35 8.35 0 0 0-5.7 2.2 28.63 28.63 0 0 0-4.89 5.72c-4.4 6.42-8.52 16.16-10.97 22.3 1.3.46 3.84.97 6.73.84.21-.54 9.37-24.1 15.51-25.07 4.74-.75 12.13 9.12 13.51 11.06" style="fill-rule:evenodd"/><path fill="#74bde9" d="M70.89 32.03c10.1-2.56 17.8-3.54 20.24-3.94-3.21.38-15.27 2.21-26.14 4.37-10.87 2.16-16.23 4.38-13.74 11.35 2.33 6.5 12.02 17.93 13.31 19.43-.9-1.17-5.68-7.6-7.32-11.5-5.76-12.2 3.4-17.13 13.65-19.71" style="fill-rule:evenodd"/><path fill="#0094d9" d="M91.12 33.43s.58-2.7.04-5.35a.3.3 0 0 1-.03 0c-2.43.41-10.13 1.39-20.24 3.94-10.26 2.59-19.41 7.52-13.66 19.71 1.65 3.9 6.44 10.34 7.33 11.51l.15.18s2.92-1.78 4.67-4.65l.1-.16c.22.27-7.79-10.35-7-15 .88-5.14 21.8-9.06 28.64-10.18" style="fill-rule:evenodd"/><path fill="#e9ec9a" d="m15 4.97.13.17c1.78 2.24 4.77 5.88 8.62 10.17a66.16 66.16 0 0 0 6.84 6.78c1.12.9 2.2 1.68 3.37 2.28 2.92 1.5 5.53 1.5 8.26-.71 1.71-1.43 2.91-3.27 4.04-5.35a79.38 79.38 0 0 0 4.35-10.48l2.14-6.16c-.9 2.2-1.84 4.55-2.93 6.84-1.63 3.41-3.54 6.73-6.4 9.21a12.82 12.82 0 0 1-7.13 3.17c-.24.02-.49.03-.74.03-2.58-.03-4.8-1.1-6.95-2.48a41.8 41.8 0 0 1-6.34-5.37 127.46 127.46 0 0 1-7.18-8z" style="fill-rule:evenodd"/><path fill="#d7df23" d="M28.6 18.44c2.15 1.38 4.37 2.45 6.95 2.48.25 0 .5-.01.74-.03a12.81 12.81 0 0 0 7.14-3.17c2.85-2.48 4.76-5.8 6.39-9.21a93.54 93.54 0 0 0 2.93-6.84l.32-.87-.48-.12C50.22.17 47.95.2 46.07.63c-1.2 2.93-5.14 13.57-10.53 14.38-4.63.7-10.76-6.5-16.86-13.74a15.13 15.13 0 0 0-4.9 2.22l.13.16c2.65 3.24 5.5 6.56 8.35 9.42 2.1 2.1 4.2 3.95 6.34 5.37" style="fill-rule:evenodd"/><path fill="#fdc689" d="M29.5 26.8a34.8 34.8 0 0 0-3.16-5.5 93.6 93.6 0 0 0-3.5-4.83A161.92 161.92 0 0 0 12.62 4.45l-.04-.04c2.93 3.22 7.79 8.84 11.3 16.35.98 2.11 3.56 8.25-.97 12.25C18.24 37.15 8.94 38.47.2 39.75c4.11-.45 8.23-.95 12.32-1.55 2.94-.43 5.89-.9 8.78-1.57 2.4-.56 5.09-1.22 7.04-2.81 1.02-.83 1.78-2 1.92-3.33a7.8 7.8 0 0 0-.75-3.69" style="fill-rule:evenodd"/><path fill="#f7931e" d="M8.47 9.63c4.5 5.2 6.37 6.9 9.7 13.57 2.57 5.19-.26 6.69-3.77 8.1C11.42 32.53.64 34.26.64 34.26a12.2 12.2 0 0 0-.46 5.5h.01c8.75-1.28 18.05-2.6 22.72-6.74 4.52-4 1.95-10.14.97-12.25-3.51-7.51-8.37-13.13-11.3-16.35l-.04-.04c-.81.6-1.51 1.43-2.5 2.66a9.79 9.79 0 0 0-1.57 2.6" style="fill-rule:evenodd"/><path fill="#f69679" d="M29.3 41.8c-1.3-1.32-3.14-1.92-4.93-2.22-1.75-.27-3.53-.3-5.3-.28-6.24.1-12.46.92-18.64 1.76l-.04.01c5.33-.66 9.4-.94 12.53-.94 3.35 0 5.71.3 7.62.95l.4.14.21.07.1.04c4.58 1.77 5.83 5.48 5.9 10-.02 4.37-1.18 9.85-2.67 15.37a181.08 181.08 0 0 1-3.53 11.42c1.57-4.11 3.21-8.2 4.7-12.35 1.57-4.41 3.1-8.83 4.2-13.4.48-1.98.89-4 .92-6.04.03-1.61-.3-3.33-1.46-4.53" style="fill-rule:evenodd"/><path fill="#ed1c24" d="M27.15 51.33c-.08-4.52-1.32-8.23-5.9-10-.03 0-.06-.02-.1-.04a24.82 24.82 0 0 0-.61-.2c-1.9-.65-4.27-.96-7.62-.96-3.14 0-7.2.28-12.53.94.54 3.34 1.9 5.51 2.49 6.3 4.32-.5 7.6-.7 10.04-.7 9.23-.04 9.48 2.63 9 9.9-.4 6.02-4.48 16.56-5.54 18.79 0 0 .77.75 1.76 1.36a18.48 18.48 0 0 0 2.8 1.4c1.18-3.39 2.45-7.4 3.54-11.42 1.49-5.52 2.65-11 2.67-15.37" style="fill-rule:evenodd"/><path d="M155.17 52.7v6.18h-3.6l.02-6.86a8.2 8.2 0 0 0-.13-1.77c-.2-.98-.76-1.58-2.07-1.58-.55 0-1.12.1-1.72.33l-.01 9.88h-3.61V47.04a17.4 17.4 0 0 1 5.7-1.1c3 0 4.76 1.78 5.25 4.22a15 15 0 0 1 .17 2.54M243.85 52.7v6.18h-3.6v-6.86c.02-.67 0-1.27-.1-1.77-.2-.98-.78-1.58-2.08-1.58-.56 0-1.13.1-1.73.33l-.02 9.88h-3.6V47.04a17.36 17.36 0 0 1 5.7-1.1c3 0 4.77 1.78 5.25 4.22.12.57.18 1.44.18 2.54M137.42 48.64c-1.54 0-3.19 1.96-2.66 5.1.32 1.92 1.41 2.54 2.11 2.54.58 0 1.06-.2 1.48-.56l-.01-7.03a10.1 10.1 0 0 0-.92-.05zm4.56 10.24h-2.73s-.23-.39-.36-.87c-.26.21-1.1 1.02-2.74 1.02-2.28 0-4.4-2.1-4.98-4.96-1.1-5.38 2.81-8.1 6.56-8.1 1.5 0 3.28.38 4.24.66zM187.68 48.64c-1.54 0-3.19 1.96-2.65 5.1.31 1.92 1.4 2.54 2.1 2.54.57 0 1.07-.2 1.49-.56l-.02-7.03c-.25-.02-.6-.05-.92-.05zm4.56 10.24h-2.73s-.23-.39-.35-.87c-.28.21-1.1 1.02-2.74 1.02-2.28 0-4.41-2.1-5-4.96-1.08-5.38 2.81-8.1 6.57-8.1 1.5 0 3.3.41 4.25.7zM251.77 48.64c-1.55 0-3.19 1.96-2.66 5.1.33 1.92 1.41 2.54 2.13 2.54.56 0 1.05-.2 1.46-.56v-7.03c-.25-.02-.62-.05-.93-.05zm4.56 10.24h-2.74s-.22-.39-.35-.87c-.27.21-1.1 1.02-2.74 1.02-2.28 0-4.4-2.1-4.98-4.96-1.1-5.38 2.8-8.1 6.56-8.1 1.49 0 3.28.38 4.24.66zM212.96 52.72l.01 6.16h-3.6v-6.84c0-.68 0-1.3-.1-1.8-.2-.92-.75-1.57-2.1-1.57-.55 0-1.51.17-2.1.52.03.08.4 1.26.4 2.72l.01 6.97h-3.64l.01-6.86c0-.71-.03-1.32-.13-1.83-.19-.94-.76-1.52-2.04-1.52-.57 0-1.12.1-1.72.33l-.01 9.88h-3.61V47.02a17.58 17.58 0 0 1 5.7-1.07 5.4 5.4 0 0 1 3.28.97 9.6 9.6 0 0 1 4.2-.97 5 5 0 0 1 5.26 4.2c.11.61.2 1.48.18 2.57M221.91 53.75c-.52 3.47-3.3 2.71-3.63 2.46V48.7c.25-.03.66-.06.97-.06 1.54 0 3.14 1.94 2.66 5.12m-2.96-7.78c-1.5 0-3.29.28-4.25.54v18.26h3.61l-.03-6.14c.38.14 1.4.4 2.03.4 2.78 0 4.58-2 5.1-4.6 1.2-5.96-2.83-8.46-6.46-8.46M124.03 54.82c-.34-1.62-1.54-2.64-2.85-3.37-1.39-.76-2.27-1.18-2.39-1.72-.09-.48.15-1.34 1.2-1.36.97-.02 1.65.24 2.92.95v-2.67a8.48 8.48 0 0 0-3.33-.7c-2.41 0-4.42 1.34-3.9 3.97.3 1.48 1.16 2.3 2.26 3.03 1.2.77 2.56 1.45 2.74 2.35.14.7-.27 1.63-1.85 1.63-.97 0-2.02-.58-2.9-1.04v2.77c.91.34 1.96.59 3.24.59 3.18 0 5.48-1.34 4.86-4.43M97.8 46.13c-2.97 0-4.68.6-6.13 1.09l.03 11.66h3.61l-.02-9.77a7.2 7.2 0 0 1 2.15-.33c.2 0 .37.03.55.05v-2.7h-.19M102.96 58.88h-3.53l.02-12.71s.46-.14 1.75-.15c1.47-.02 1.78.15 1.78.15zM130.41 56.07c-.1.03-.25.03-.42.03-.73 0-1.08-.35-1.08-1.55V42.11s-.33-.18-1.82-.16a7 7 0 0 0-1.78.16h-.01v12.6c0 3.91 2.25 4.56 3.77 4.56.9 0 1.54-.13 2.1-.3zM230.6 58.88h-3.52l.02-12.5s.47-.25 1.76-.25c1.46-.02 1.77.26 1.77.26z" style="fill:#0094d9;fill-rule:evenodd"/><path d="M180.14 55.8c-.7.23-1.66.5-2.55.5-2.5 0-3.44-2.49-3.44-5.64 0-2.96.73-5.67 3.3-5.67.77 0 1.76.15 2.58.94l1.83-2.43c-.97-.96-2.28-1.52-4.4-1.52-3.98 0-7.23 2.6-7.23 8.68 0 6.23 2.97 8.7 7.29 8.7 1.2 0 3.12-.4 4.04-.76zM162.62 56.42c-.73 0-1.77-.62-2.1-2.56-.34-2 .13-4.02 1.39-4.95.78-.53 1.67-.38 2.34-.18l.01 7.03c-.46.43-1.06.66-1.64.66m3.4-14.47c-1.3 0-1.77.16-1.77.16l.01 3.95c-.29-.02-.68-.11-.98-.11-3.69 0-7.52 2.36-6.32 8.27.6 2.89 2.7 4.98 5.23 4.98.9 0 1.82-.43 2.6-1.03l.35.7h2.75V42.12s-.37-.18-1.86-.16M110.02 48.41h.04c.94-.07 1.7 1.02 1.76 2.62l-.01.75h-3.94s-.29-3.23 2.15-3.37zm1.2 5.54a39 39 0 0 0 2.31-.07l.8-.03c0-.05.26-1.13.23-2.36-.06-4.3-2.13-5.47-4.7-5.54h-.04c-3.17.04-5.49 1.95-5.48 6.6v.05c.13 4.8 2.26 6.61 5.66 6.68l.04.01c.8 0 2.39-.14 3.95-.92v-2.65c-1.46.65-2.13 1-3.63.92-2.83-.15-2.56-2.7-2.56-2.7zM84.89 45.05c.53-.44 1.77-.61 2.96-.61 2.73 0 3.77.59 3.77.59l.8-2.71s-2.07-1.08-6.24-.7c-3.91.35-5.12 1.38-5.12 1.38v15.97h3.82v-7.13h5.52V48.9h-5.51v-2.36ZM273.47 43.69a1.87 1.87 0 1 1-3.73 0 1.87 1.87 0 0 1 3.73 0M282.32 48.98c0-1.19-.46-2-1.14-2.44a4.15 4.15 0 0 0-2.28-.54 13.4 13.4 0 0 0-4.38.76v8.52h2.77v-6.39c.54-.1.98-.16 1.3-.16.38 0 .61.07.7.16.1.08.17.2.18.5 0 .26-.07.63-.22 1.1-.2.66-.45 1.39-.7 2.07v2.72h1.9c.03-.07 1.43-3.67 1.66-4.72.14-.59.2-1.11.2-1.58M263.25 58.86h16.7v-2.42h-16.7zM273.1 46.82s-.35-.1-1.5-.1c-.88 0-1.5.1-1.5.1v8.46h3zM264.66 52.56c-.25-.68-.5-1.41-.71-2.07-.14-.47-.21-.84-.21-1.1 0-.3.07-.42.16-.5.1-.09.33-.16.71-.16.33 0 .77.05 1.3.16v6.39h2.78v-8.51a13.41 13.41 0 0 0-4.39-.77c-.77 0-1.6.1-2.28.54-.68.45-1.13 1.25-1.13 2.44 0 .47.07 1 .2 1.58.24 1.05 1.63 4.65 1.66 4.72h1.91z" style="fill:#0094d9;fill-rule:evenodd"/></svg>