<svg xmlns="http://www.w3.org/2000/svg" viewBox="-0.6 -0.6 147.86 21.08"><path d="M15.78 7.7H5.7c-.5 0-.87-.4-.87-1.12V5.24c0-.67.27-1.06.92-1.06h12.32V.12H3.32S0 .06 0 3.72V8.3c0 3.15 3.1 3.62 3.1 3.62h.01l10.08.04c.48 0 .86.36.86 1.09v1.34c0 .64-.25 1.01-.83 1.05H.03v4.24l15.53.06s3.32.04 3.32-3.63v-4.77c0-3.15-2.42-3.57-3.1-3.62m29.16 12.03h5.93V0h-5.93v19.74zM35.45 0v11.11h-7.92V0H21.6v19.74h5.93v-4.31h7.92v4.31h5.93V0h-5.93m45.87 2.85c-.3-.74-1.2-1.97-2-2.27a9.76 9.76 0 0 0-2.64-.52c.67.06-21.4-.01-21.4-.01v19.62h6.05V3.35h4.34v16.32h6.04V3.35h1.66l-.08.04S76 3 76 6.09l.03-.05v13.63h5.8V5.94s.1-1.65-.5-3.09m22.72 0c-.31-.74-1.21-1.97-2.02-2.27C101 .21 99.84.12 99.17.06h-9.15c-.68.06-1.84.15-2.86.52-.8.3-1.7 1.53-2.01 2.27-.6 1.44-.51 3.09-.51 3.09v13.73h5.68v-4.24h8.2v4.24h6.03V5.94s.09-1.65-.5-3.09zM90.3 12.12v-6l.03.03c0-3.07 2.7-2.69 2.7-2.69l-.07-.04h2.88l-.08.04s2.7-.38 2.7 2.7l.03-.05v6.01h-8.2m35.3-9.27c-.3-.74-1.2-1.97-2.01-2.27-1.03-.37-2.19-.46-2.87-.52l-.19-.01h-.02c-.28-.02-.45 0-.45 0H107v19.62h6.04V3.33h4.3s2.69-.36 2.69 2.72l.03 13.62h6.04V5.94s.09-1.65-.5-3.09m21.06 7.22V5.94s.09-1.65-.5-3.09c-.31-.74-1.21-1.97-2.02-2.27-1.02-.37-2.18-.46-2.86-.52l-2.3-.01h-2.72L134 .06c-.68.06-1.84.15-2.87.52-.8.3-1.7 1.53-2 2.27-.6 1.44-.51 3.09-.51 3.09v8.05s-.09 1.65.5 3.1c.3.73 1.21 1.96 2.01 2.26 1.03.37 2.19.47 2.87.53h7.28c.68-.06 1.84-.16 2.86-.53.8-.3 1.7-1.53 2.01-2.27.6-1.44.51-3.09.51-3.09v-3.92zm-5.68 3.78-.04-.04c0 3.07-2.65 2.72-2.62 2.73h-1.44c.03-.01-2.62.34-2.62-2.73l-.03.04V6.9l.03.05c0-3.08 2.23-2.7 2.23-2.7-.03-.01.42-.02.4-.04h1.43c-.03.02.46.03.43.04 0 0 2.2-.38 2.2 2.7l.03-.05v6.95" style="fill:#00adef;fill-opacity:1;fill-rule:nonzero;stroke:none"/></svg>