<svg xmlns="http://www.w3.org/2000/svg" xml:space="preserve" viewBox="0 0 126.77 60.74" height="62" class="d-block mx-auto logo-dsm recolor" style="margin-top: 3px; margin-bottom: 3px;" alt="DSM">
  <defs>
    <path id="reuse-0" d="M0 234.99h499.17V.06H0v234.93z" style="fill:url(#d)" class="light" />
    <path id="reuse-1" d="M0 0h-.08C-.3 0-.5 0-.73-.01L0 0" style="fill:#4f266c" class="dark" />
  </defs>
  <defs>
    <linearGradient id="b" x1="0" x2="1" y1="0" y2="0" gradientTransform="scale(-174.326 174.326) rotate(-61.39 .42 1.66)" gradientUnits="userSpaceOnUse" spreadMethod="pad">
      <stop offset="0" style="stop-color:#faad0b;stop-opacity:1" />
      <stop offset="1" style="stop-color:#bc1f84;stop-opacity:1" />
    </linearGradient>
    <linearGradient id="d" x1="0" x2="1" y1="0" y2="0" gradientTransform="matrix(0 144.572 144.572 0 95.2 0)" gradientUnits="userSpaceOnUse" spreadMethod="pad">
      <stop offset="0" style="stop-color:#85d048;stop-opacity:1" />
      <stop offset="1" style="stop-color:#118248;stop-opacity:1" />
    </linearGradient>
    <linearGradient id="e" x1="0" x2="1" y1="0" y2="0" gradientTransform="scale(-102.213 102.213) rotate(44 -1.17 -1.65)" gradientUnits="userSpaceOnUse" spreadMethod="pad">
      <stop offset="0" style="stop-color:#52c5bb;stop-opacity:1" />
      <stop offset="1" style="stop-color:#00a385;stop-opacity:1" />
    </linearGradient>
    <linearGradient id="f" x1="0" x2="1" y1="0" y2="0" gradientTransform="matrix(0 -100.826 -100.826 0 98.69 132.54)" gradientUnits="userSpaceOnUse" spreadMethod="pad">
      <stop offset="0" style="stop-color:#084f28;stop-opacity:1" />
      <stop offset="1" style="stop-color:#00966c;stop-opacity:1" />
    </linearGradient>
    <linearGradient id="h" x1="0" x2="1" y1="0" y2="0" gradientTransform="scale(167.926 -167.926) rotate(75 1.14 -.42)" gradientUnits="userSpaceOnUse" spreadMethod="pad">
      <stop offset="0" style="stop-color:#75d3f7;stop-opacity:1" />
      <stop offset="1" style="stop-color:#4cc6f4;stop-opacity:1" />
    </linearGradient>
    <linearGradient id="i" x1="0" x2="1" y1="0" y2="0" gradientTransform="scale(147.54 -147.54) rotate(80 1.04 -.38)" gradientUnits="userSpaceOnUse" spreadMethod="pad">
      <stop offset="0" style="stop-color:#069ce2;stop-opacity:1" />
      <stop offset="1" style="stop-color:#1a3679;stop-opacity:1" />
    </linearGradient>
    <linearGradient id="j" x1="0" x2="1" y1="0" y2="0" gradientTransform="matrix(0 81.578 81.578 0 156.3 95.08)" gradientUnits="userSpaceOnUse" spreadMethod="pad">
      <stop offset="0" style="stop-color:#3e2e7e;stop-opacity:1" />
      <stop offset="1" style="stop-color:#a98164;stop-opacity:1" />
    </linearGradient>
    <linearGradient id="k" x1="0" x2="1" y1="0" y2="0" gradientTransform="scale(146.065 -146.065) rotate(30 2.62 -.17)" gradientUnits="userSpaceOnUse" spreadMethod="pad">
      <stop offset="0" style="stop-color:#0c8bd5;stop-opacity:1" />
      <stop offset="1" style="stop-color:#283c97;stop-opacity:1" />
    </linearGradient>
    <linearGradient id="l" x1="0" x2="1" y1="0" y2="0" gradientTransform="scale(-54.576 54.576) rotate(59.56 -1.9 -2.04)" gradientUnits="userSpaceOnUse" spreadMethod="pad">
      <stop offset="0" style="stop-color:#d55cb5;stop-opacity:1" />
      <stop offset="1" style="stop-color:#96168f;stop-opacity:1" />
    </linearGradient>
    <linearGradient id="m" x1="0" x2="1" y1="0" y2="0" gradientTransform="scale(-34.055 34.055) rotate(59.56 -3.92 -3.16)" gradientUnits="userSpaceOnUse" spreadMethod="pad">
      <stop offset="0" style="stop-color:#ab278b;stop-opacity:1" />
      <stop offset="1" style="stop-color:#951883;stop-opacity:1" />
    </linearGradient>
    <linearGradient id="n" x1="0" x2="1" y1="0" y2="0" gradientTransform="matrix(83.34 0 0 -83.34 58.53 62.37)" gradientUnits="userSpaceOnUse" spreadMethod="pad">
      <stop offset="0" style="stop-color:#4e388a;stop-opacity:1" />
      <stop offset="1" style="stop-color:#8a3ea4;stop-opacity:1" />
    </linearGradient>
    <clipPath id="a">
      <path d="M0 0h499.17v234.99H0V0z" />
    </clipPath>
    <clipPath id="c">
      <path d="M91.67 141.16C57.1 130.33 39.2 87.76 54.44 45.08a99.74 99.74 0 0 1 4.31-10.27C80.07-9 122.5.98 122.5.98s15.35 29.04-13 51.59C89.69 68.3 79.4 84.03 88.94 108.6c.5 1.3 1.1 2.65 1.74 4 .1.25.21.5.34.76 3.3 7.23 8.27 14.45 11.32 18.88 2.06 3 4.49 4.47 9.85 4.92 4.98.43 16.88.16 20.07-.08 4.62-.37 6.63-1.12 9.02-4.7l.16-.26c-6.82 12.7-28.74 15.62-49.77 9.03" class="dark" />
    </clipPath>
    <clipPath id="g">
      <path d="M174.75 172.88c-9.73 27-32.38 49.82-61.75 57.69-49.08 13.15-90.87-4.4-113-34.64 0 0 16.44-26.28 58.68-24.05 27.42 1.46 55.93-1.25 75.92-29.69 2.15-3.04 4.14-6 6-8.87.23-.28.45-.6.68-.92 2.24-3.4 5.45-8.23 10.45-17.56 1.68-3.14 1.77-7.2-.19-11.23-2.1-4.35-6.82-13.52-9-16.95-1.56-2.46-5.23-6.34-9.88-6.75h-.06c16.45.89 29.93 11.25 38.73 26.96 10.39 18.56 11.36 43.98 3.42 66" class="dark" />
    </clipPath>
  </defs>
  <g clip-path="url(#a)" transform="matrix(.24996 0 0 -.25003 .97 59.72)">
    <path d="M0 0v-80.78a2.25 2.25 0 0 0-2.25-2.24l-18.92-.03s.12 33.3 0 39.92c-.08 4.37 1.28 17.72 1.77 19.98l.01.15c-.07.35-.37.25-.45.19l-.11-.12-21.46-34.62a2.84 2.84 0 0 0-.44-.62c-.42-.41-.99-.64-1.6-.64l-5.26.01h-.02l-5.28-.02c-.6 0-1.17.23-1.59.65-.18.19-.31.39-.43.62L-77.5-22.93l-.1.12c-.1.06-.4.16-.46-.19v-.15c.49-2.26 1.85-15.61 1.77-19.98-.11-6.63 0-39.92 0-39.92l-18.91.03c-.59 0-1.16.23-1.59.63-.43.43-.67 1-.67 1.61V0a2.25 2.25 0 0 0 2.26 2.23h22.85c.95 0 1.69-.5 2.18-1.28l18.08-31.12a45.12 45.12 0 0 0 3.06-7.31v-.04a.28.28 0 0 1 .29-.26h.02c.14 0 .26.11.27.26h.02v.03c-.02.3 1.82 5.21 3.05 7.32L-27.3.95c.5.79 1.23 1.28 2.2 1.28h22.84C-1 2.23 0 1.23 0 0zm-135.65-30.3-1.03.33c-6.05 2.03-11.02 5.12-11.26 9.29a7.54 7.54 0 0 0 1.87 5.52c1.7 1.8 4.8 2.5 6.73 2.5 9.53 0 18.38-4.52 18.38-4.52l5.24 14.03a2.25 2.25 0 0 1-1.37 2.9l-.11.03a68.3 68.3 0 0 1-22.4 4.4c-18.48.25-29.58-9.14-29.58-24.43 0-18.05 15.21-23.92 20.22-25.95.85-.35 1.8-.71 2.78-1.09a59.2 59.2 0 0 0 9.79-4.56c3.05-1.9 3.7-5.41 3.22-7.72-1.38-6.66-8.7-8.1-14.55-7.23-11.14 1.67-16.99 4.76-16.99 4.76l-4.78-14.14a2.26 2.26 0 0 1 1.06-2.7c.09-.04 10.3-5.22 23.4-5.22 14.97 0 32.45 7.13 32.45 27.27 0 18.53-16.06 24.3-23.07 26.53zm-90.3-35.42c-7.26-.31-11.74.19-13.82.8l.01 49.4c2.3.35 7.5.83 14.41.57 8.65-.33 23.17-3.4 23.17-23.12 0-20.56-14.82-27.26-23.78-27.65zm22.44 64.36c-12.1 5.33-26.8 5.66-35.05 5.33-17.03-.67-22.4-2.14-22.4-2.14v-81.78c0-.98.63-1.86 1.53-2.16.05-.02 7.7-2.3 21.03-2.65 17.14-.45 29.65 1.83 38.99 8.07 12.53 8.39 18.7 20.3 18.7 37.74 0 18.28-7.67 30.92-22.8 37.59" style="fill:#244aa5" transform="translate(499.17 148.08)" class="light" />
    <path d="M193.95 228.08c-27.95-8.36-41.29-21.39-37.11-57.42 3.43-23.67 1.42-43.75-2.1-57.31-.75-2.9-1.49-5.24-2.25-7.27-.23-.82-.54-1.64-.95-2.47-2.1-4.35-6.82-13.52-9-16.95-1.64-2.6-5.67-6.83-10.72-6.78-4.9.03-15.6.43-18.36.43-2.66 0-7.6-.3-7.6-.3 7.14-7.68 19.6-14.67 36.43-14.83 12.54-.13 26.7 3.42 40.26 13.15 49.18 35.27 36.97 125.14 11.4 149.75" style="fill:url(#b)" class="dark" />
    <g clip-path="url(#c)">
      <use xlink:href="#reuse-0" style="fill:url(#d)" />
    </g>
    <path d="M115.2 79.85c-3.6.48-6.59.45-8.45 1.17l-.01.02a9.22 9.22 0 0 0-4.47 3.62 221.93 221.93 0 0 0-10.88 18.63c-2.22 4.5-2.02 6.5-.38 10.08 3.31 7.23 8.28 14.45 11.33 18.88l.21.3c-1.43-1.23-13.23-11.4-21.03-22.14-14.37-19.77-10.41-47.08 5.95-64.03 11.97-12.39 25.96-14.94 36.64-14.64 19.61.53 37.6 15.93 37.6 15.93-6.42 18.9-24.7 29.33-46.51 32.18" style="fill:url(#e)" class="light" />
    <path d="m124.1 31.74.6.02c-2.27 6.9-6.82 14.14-15.21 20.8-19.8 15.75-30.08 31.47-20.55 56.05.5 1.3 1.1 2.64 1.74 4l.33.76c3.31 7.23 8.28 14.45 11.33 18.88l.2.3c-1.42-1.23-13.22-11.4-21.03-22.14-14.36-19.77-10.4-47.08 5.96-64.03 11.97-12.39 25.96-14.94 36.64-14.64" style="fill:url(#f)" class="light" />
    <g clip-path="url(#g)">
      <use xlink:href="#reuse-0" style="fill:url(#h)" />
    </g>
    <path d="M155.85 161.9c-9.35 17.14-31.1 37.2-68.73 37.2-52.95 0-81.27-39.76-81.27-78.44 0-30.64 16.62-61.07 48.59-75.6-11.57 46.9 9.15 89.06 57.13 92.05l.62.06c4.98.43 16.88.16 20.07-.08 4.62-.37 6.63-1.12 9.02-4.7 2.24-3.38 5.45-8.23 10.45-17.55 1.68-3.14 1.77-7.2-.19-11.23a293.96 293.96 0 0 0-8.05-15.37c.51.6 11.67 13.67 15.1 22.23 8.1 20.26 2.18 42.44-2.74 51.43" style="fill:url(#i);stroke:none" class="dark" />
    <path d="M132.6 79.89c16.45.9 29.93 11.27 38.73 26.98 10.39 18.56 11.36 43.98 3.42 66a93.88 93.88 0 0 1-15.99 27.94c-2.7-7.76-3.38-17.55-1.92-30.15 3.43-23.67 1.42-43.76-2.1-57.31a70.96 70.96 0 0 0-2.25-7.27c-.23-.83-.54-1.64-.95-2.47-2.1-4.36-6.82-13.52-9-16.95-1.56-2.46-5.23-6.36-9.88-6.75l-.06-.02" style="fill:url(#j)" class="light" />
    <path d="M158.58 110.47c8.11 20.26 2.19 42.44-2.73 51.43-9.35 17.14-31.1 37.2-68.73 37.2-25.58 0-45.4-9.28-59.07-23.23 8.17-2.85 18.3-4.63 30.63-3.99 27.42 1.46 55.93-1.25 75.92-29.69 2.15-3.04 4.14-6 6-8.87h.01l.32-.42c.1-.17.23-.34.34-.5 2.25-3.4 5.46-8.24 10.46-17.56 1.68-3.14 1.77-7.2-.19-11.23a293.96 293.96 0 0 0-8.05-15.37c.51.6 11.67 13.67 15.1 22.23" style="fill:url(#k)" class="dark" />
    <path d="M189.52 70.93c-6.76 4.5-10.67 14.25-10.33 23.7.38 10.25-5.71 8.64-5.71 8.64s-12.63-23.14-41.6-23.38h-.01c-5.29.04-14.46.38-18.32.42C95.05 80.1 77 76.56 62.37 58c0 0 15.47.85 45.82-8.5 56.37-17.36 84.24 15.25 81.33 21.42" style="fill:url(#l)" class="light" />
    <path d="M173.48 103.28s-12.52-22.9-41.18-23.38a210.01 210.01 0 0 0-6.01.1c-4.75.1-10.05.28-12.74.3-1 0-2-.03-3-.06-1.62-.06-3.22-.15-4.07-.19l-.6-.05c7.12-7.67 19.6-14.66 36.41-14.82 12.54-.13 26.7 3.43 40.26 13.15l.28.21a31.87 31.87 0 0 0-3.64 16.1c.38 10.24-5.71 8.64-5.71 8.64" style="fill:url(#m)" class="dark" />
    <path d="M0 0c-34.57-10.83-52.47-53.4-37.23-96.1C-48.79-49.2-28.08-7.03 19.9-4.04l.62.06c4.98.42 16.88.15 20.07-.08 4.62-.38 6.63-1.13 9.02-4.7l.16-.26C42.95 3.67 21.03 6.59 0 0" style="fill:#1c3a82" transform="translate(91.67 141.16)" class="dark" />
    <path d="M161.72 47.68C155.29 66.58 137 77 115.2 79.85c-1.44.2-2.77.3-3.97.42-17.7-.5-34.84-4.49-48.86-22.25 0 0 15.47.84 45.82-8.51 22.39-6.9 40.27-5.9 53.53-1.83" style="fill:url(#n)" class="light" />
    <path d="M0 0c1.07-17.5-.76-32.36-3.55-43.12a70.13 70.13 0 0 0-2.25-7.26l-.01-.04c-.1-.37-.23-.74-.37-1.1l-.09-.23c-.12-.33-.26-.65-.41-.97-.03-.05-.04-.1-.07-.13a295.72 295.72 0 0 0-8.04-15.37c.6.72 11.67 13.7 15.08 22.23C7.07-29.05 4.04-10.79 0 0" style="fill:#193373" transform="translate(158.3 156.47)" class="light" />
    <path d="M0 0c-1.6 1.66-3.69 3.29-5.71 4.9-9.7 7.7-16.8 15.4-20.71 24.14-9.38-3.11-18.54-8.73-26.4-18.7 0 0 15.46.85 45.82-8.5C-4.72 1.13-2.2.53 0 0" style="fill:#512988" transform="translate(114.88 47.67)" class="light" />
    <path d="M0 0H-.35a457.07 457.07 0 0 0-.04-.01L0 0" style="fill:#4f266c" transform="translate(132.21 79.89)" />
    <path d="m0 0 .6.05L0 0V0M0 0l.6.05L0 0V0" style="fill:#4f266c" transform="translate(105.88 80)" class="light" />
    <use xlink:href="#reuse-1" style="fill:#4f266c" transform="translate(111.27 80.26)" />
    <use xlink:href="#reuse-1" style="fill:#4f266c" transform="translate(111.27 80.26)" />
    <path d="M0 0c-.24 0-.49 0-.73-.02a109.22 109.22 0 0 1-4.66-.24c7.13-7.67 19.6-14.66 36.41-14.82 2.44-.04 4.94.08 7.49.36C29.67-6.88 17.48-2.18 3.93-.4 2.5-.2 1.19-.1 0 0" style="fill:#67268e" transform="translate(111.27 80.26)" class="dark" />
  </g>
</svg>
