<svg xmlns="http://www.w3.org/2000/svg" version="1.0" viewBox="-1.59952503 -1.59952503 148.11156006 56.51655106" id="svg2846"><path d="M144.9125 38.79125V7.83875C144.9125 3.15 141 0 137.15 0H0v38.79125h144.9125" id="path2591" style="fill:#2a3e87;fill-opacity:1;" class="dark"/><path d="M0 45.4725c0 5.22625 4.3625 7.845 7.7875 7.845h137.125v-12.93H0v5.085" id="path2593" style="fill:#3398cc;fill-opacity:1;" class="dark"/><path d="M0 40.38875h144.9125v-1.59887H0v1.59887z" id="path2595" style="fill:#fff;fill-opacity:1;" class="light"/><path d="M60.7 44.8025h2.95v.61875h-2.2375v1.0725h2.0625v.585h-2.0625v1.19875h2.275v.62H60.7v-4.095" id="path2597" style="fill:#fff;fill-opacity:1;" class="light"/><path d="M65.05 44.8025h.725v3.475h2.075v.62h-2.8v-4.095" id="path2599" style="fill:#fff;fill-opacity:1;" class="light"/><path d="M69.0875 44.8025h2.95v.61875H69.8v1.0725h2.0625v.585H69.8v1.19875h2.275v.62h-2.9875v-4.095" id="path2601" style="fill:#fff;fill-opacity:1;" class="light"/><path d="M76.2 46.10375c-.1125-.47-.425-.81375-1.0125-.81375-.8875 0-1.25.77375-1.25 1.56 0 .785.3625 1.56 1.25 1.56.6375 0 .9875-.47625 1.0375-1.0725h.7c-.0625.98125-.75 1.6575-1.7375 1.6575-1.2375 0-1.9625-.975-1.9625-2.145s.725-2.14625 1.9625-2.14625c.9125.00625 1.65.5175 1.7375 1.4H76.2" id="path2603" style="fill:#fff;fill-opacity:1;" class="light"/><path d="M77.925 44.8025h3.325v.61875h-1.3125v3.47625h-.7125v-3.47625h-1.3v-.61875" id="path2605" style="fill:#fff;fill-opacity:1;" class="light"/><path d="M83.175 45.3875h1.1625c.375 0 .7125.1025.7125.625 0 .43-.2375.65375-.7.65375h-1.175V45.3875zm-.7125 3.51h.7125v-1.68625h1.0625c.65 0 .8125.3325.8125 1.08375 0 .20125 0 .425.1125.6025h.7625c-.15-.16625-.225-.6025-.225-1.07875 0-.6475-.3625-.83125-.6-.86625v-.01125c.125-.04625.675-.24625.675-1.0325 0-.69375-.4625-1.10625-1.3625-1.10625h-1.95v4.095" id="path2607" style="fill:#fff;fill-opacity:1;" class="light"/><path d="M87.2375 48.8975h.7126v-4.095h-.7126v4.095z" id="path2609" style="fill:#fff;fill-opacity:1;" class="light"/><path d="M92.3375 46.10375c-.125-.47-.425-.81375-1.025-.81375-.875 0-1.2375.77375-1.2375 1.56 0 .785.3625 1.56 1.2375 1.56.6375 0 .9875-.47625 1.05-1.0725h.7c-.0625.98125-.75 1.6575-1.75 1.6575-1.225 0-1.9625-.975-1.9625-2.145s.7375-2.14625 1.9625-2.14625c.925.00625 1.6625.5175 1.7375 1.4h-.7125" id="path2611" style="fill:#fff;fill-opacity:1;" class="light"/><path d="M95.9125 45.5075h.025l.6125 1.76125H95.3l.6125-1.76125zm-1.9375 3.39h.75l.375-1.08375h1.6375l.3875 1.08375h.7625l-1.575-4.095H95.55l-1.575 4.095" id="path2613" style="fill:#fff;fill-opacity:1;" class="light"/><path d="M99.025 44.8025h.7125v3.475h2.0875v.62h-2.8v-4.095" id="path2615" style="fill:#fff;fill-opacity:1;" class="light"/><path d="M105.8625 47.5325c0 .63125.4625.8775 1.0375.8775.625 0 .8625-.31.8625-.62 0-.315-.175-.44125-.3375-.505-.2875-.10875-.6625-.1825-1.225-.3375-.7-.19-.9-.61375-.9-1.03875 0-.82.75-1.205 1.4875-1.205.8625 0 1.575.45375 1.575 1.30875h-.7125c-.0375-.5275-.3875-.7225-.8875-.7225-.325 0-.75.12-.75.5325 0 .2875.2.4475.4875.52875.0625.01625.975.2525 1.1875.315.5375.16125.7875.61875.7875 1.04375 0 .9175-.8125 1.285-1.625 1.285-.9375 0-1.6875-.4475-1.7125-1.4625h.725" id="path2617" style="fill:#fff;fill-opacity:1;" class="light"/><path d="M109.8 44.8025h.7125v2.38625c0 .55.0375 1.18625.9625 1.18625.9375 0 .9625-.63625.9625-1.18625V44.8025h.725v2.62125c0 1.04875-.675 1.57125-1.6875 1.57125-1 0-1.675-.5225-1.675-1.57125V44.8025" id="path2619" style="fill:#fff;fill-opacity:1;" class="light"/><path d="M115.4375 45.3875H116.5c.3875 0 .7125.1375.7125.67625 0 .51625-.4.6775-.725.6775h-1.05V45.3875zm-.7125 3.51h.7125v-1.57125h1.1c1.1625.005 1.3875-.75125 1.3875-1.25625 0-.51125-.225-1.2675-1.3875-1.2675h-1.8125v4.095" id="path2621" style="fill:#fff;fill-opacity:1;" class="light"/><path d="M120.0125 45.3875h1.0625c.375 0 .7.1375.7.67625 0 .51625-.4.6775-.7125.6775h-1.05V45.3875zm-.725 3.51h.725v-1.57125H121.1c1.1625.005 1.3875-.75125 1.3875-1.25625 0-.51125-.225-1.2675-1.3875-1.2675h-1.8125v4.095" id="path2623" style="fill:#fff;fill-opacity:1;" class="light"/><path d="M123.8625 44.8025h.7125v3.475h2.0875v.62h-2.8v-4.095" id="path2625" style="fill:#fff;fill-opacity:1;" class="light"/><path d="M127.8875 48.8975h.725v-4.095h-.725v4.095z" id="path2627" style="fill:#fff;fill-opacity:1;" class="light"/><path d="M130.225 44.8025h2.95v.61875h-2.2375v1.0725H133v.585h-2.0625v1.19875h2.275v.62h-2.9875v-4.095" id="path2629" style="fill:#fff;fill-opacity:1;" class="light"/><path d="M135.05 47.5325c0 .63125.4625.8775 1.0375.8775.625 0 .8625-.31.8625-.62 0-.315-.175-.44125-.3375-.505-.2875-.10875-.6625-.1825-1.225-.3375-.7-.19-.9-.61375-.9-1.03875 0-.82.75-1.205 1.5-1.205.85 0 1.5625.45375 1.5625 1.30875h-.7125c-.0375-.5275-.3875-.7225-.8875-.7225-.325 0-.75.12-.75.5325 0 .2875.2.4475.4875.52875.0625.01625.975.2525 1.1875.315.5375.16125.8.61875.8 1.04375 0 .9175-.825 1.285-1.6375 1.285-.9375 0-1.6875-.4475-1.7125-1.4625h.725" id="path2631" style="fill:#fff;fill-opacity:1;" class="light"/><path d="M105.8375 23.03375c0 .86375.425 1.23 1.2375 1.23h8.8375v1.59875h-9.4375c-3.4125 0-5.0625-1.165-5.0625-3.6175v-9.3125h4.425v10.10125" id="path2633" style="fill:#fff;fill-opacity:1;" class="light"/><path d="M78.75 12.61625v-.545c-4.625 0-7.7875 2.09625-11.05 5.1375-1.4625-1.28-2.5875-2.26-2.8875-2.52125-1.5375-1.3325-1.7-1.755-3.875-1.755h-3.675c3.6875 3.23125 6.175 5.41375 7.9 6.92625C62 23.01375 57.8 27.87 53.4875 27.6425V28.1c3.8625.3625 8.1-1.28875 13.4125-6.7125 1.9875 1.7375 2.325 2.02 3.0875 2.64 2.1 1.70375 1.7625 1.835 4.15 1.835H77.65s-4.6-4-8.3125-7.2275c2.5-2.8125 5.8-6.01875 9.4125-6.01875" id="path2635" style="fill:#fff;fill-opacity:1;" class="light"/><path d="M40.3375 18.32875c.0875-3.51625 1.0375-4.17125 3.1875-4.17125h2.7c2.15 0 3.1.655 3.1875 4.17125h-9.075zm13.675 1.4725c.0125-.19125.0125-.38875.0125-.59125 0-5.51-3.9375-6.58375-9.0125-6.58375h-.3875c-4.0375 0-8.9 1.07375-8.9 6.58375 0 5.605 4.0375 6.6525 6.6375 6.6525H52.875v-1.58h-9.35c-2.8375 0-3.15-1.0925-3.1875-4.48375l13.675.0025" id="path2637" style="fill:#fff;fill-opacity:1;" class="light"/><path d="M84.225 18.32875c.1-3.51625 1.0375-4.17125 3.1875-4.17125h2.7c2.15 0 3.1.655 3.1875 4.17125h-9.075zm13.675 1.4725c.0125-.19125.0125-.38875.0125-.59125 0-5.51-3.9375-6.58375-9-6.58375h-.4c-4.025 0-8.9 1.07375-8.9 6.58375 0 5.605 4.0375 6.6525 6.6375 6.6525h10.5125v-1.58h-9.35c-2.8375 0-3.15-1.0925-3.1875-4.48375l13.675.0025" id="path2639" style="fill:#fff;fill-opacity:1;" class="light"/><path d="M28.9375 20.39125c1.8375-.555 2.9125-1.8 2.9125-3.82125 0-2.94625-2.5-3.63875-5.1875-3.63875H14.5v12.93h4.45v-4.935l5.4875.0025c1.9125 0 3.125.15125 3.125 4.93375h4.475c0-3.005-1.2625-4.615-3.1-5.47125zM18.95 14.35h6.7c2.325 0 2.0875 5.08-.35 5.08h-6.35v-5.08" id="path2641" style="fill:#fff;fill-opacity:1;" class="light"/></svg>