<svg xmlns="http://www.w3.org/2000/svg" viewBox="0 0 33.55 5.73"><path d="M132.1 280.67c-.06-.58-.36-.93-.97-.93-.57 0-.91.36-.98.93zm.9.21c0 .19-.01.38-.04.54h-2.8c.1.46.5.75 1.25.75h.02a3.13 3.13 0 0 0 .2 0l.07-.01c.3-.04.6-.12.87-.25l.06-.03.16-.08h.03v.78c-.41.25-.89.39-1.4.39h-.06c-1.4 0-2.17-.8-2.17-1.96 0-1.25.8-2.07 1.94-2.07 1.15 0 1.88.81 1.88 1.94m-9.67 2.01h.95l.18-3.34.04-.9h.02l.2.9.77 3.34h1.2l.78-3.34.2-.9.05.9.18 3.34h1l-.33-5.35H127l-.71 3.21-.16.82h-.02l-.16-.82-.71-3.2h-1.58zm16.41.08c-.9 0-1.4-.41-1.4-1.34v-1.83h-1.07v1.94c0 .3.11.4.35.4h.21v.75c-.1.02-.28.05-.42.05-.53 0-.86-.2-1-.65-.27.44-.72.68-1.27.68-.98 0-1.78-.77-1.78-2.02 0-1.24.8-2.01 1.78-2.01.5 0 .9.18 1.17.53v-1.93h.96v1.48h1.07v-.93h.97v.93h1.03v.78h-1.03v1.78c0 .39.19.58.56.58.17 0 .29-.02.44-.06h.03v.8c-.19.04-.41.07-.6.07m-4.4-.81c.66 0 1.02-.5 1.02-1.21 0-.7-.36-1.2-1.02-1.2-.65 0-1 .5-1 1.2s.35 1.2 1 1.2m6.38-1.29c0-.63.33-.98.95-.98.1 0 .22.02.33.05h.02v-.9c-.1-.04-.23-.06-.38-.06-.47 0-.78.29-.95.75v-.7h-.93v3.87h.96zm3.35 2.1a1.96 1.96 0 0 1-2.04-2c0-1.14.83-2.02 2.04-2.02s2.03.88 2.03 2.01c0 1.14-.82 2.02-2.03 2.02m0-.83c.7 0 1.05-.5 1.05-1.19 0-.68-.36-1.18-1.05-1.18-.67 0-1.05.5-1.05 1.18 0 .69.38 1.19 1.05 1.19m3.5-1.41c0-.6.31-.99.87-.99.55 0 .8.37.8.99v2.16h.97v-2.2c0-.93-.48-1.75-1.53-1.75-.56 0-.93.28-1.14.7v-.62h-.92v3.87h.96zm4.33-2.66c0 .31-.24.57-.57.57a.57.57 0 1 1 .57-.57m.54 4.82a2.4 2.4 0 0 1-.47.06c-.74 0-1.13-.4-1.13-1.1v-2.83h.96v2.76c0 .25.13.38.4.38l.22-.03h.02zm.1-1.94c0-1.13.81-2.01 2.04-2.01.35 0 .74.08 1.04.25v.85h-.03a1.8 1.8 0 0 0-.94-.26c-.74 0-1.13.5-1.13 1.17 0 .68.4 1.18 1.13 1.18.34 0 .64-.08.94-.26h.03v.85c-.3.16-.7.25-1.04.25a1.96 1.96 0 0 1-2.05-2.02" style="fill:#224a87;fill-opacity:1;fill-rule:nonzero;stroke:none;stroke-width:.35277778" transform="translate(-123.2 -277.37)"/></svg>