<svg xmlns="http://www.w3.org/2000/svg" viewBox="0 0 210.9 44.6"><path d="M11.7 14.5c-.9 0-1.8.2-2.6.5s-1.5.8-2 1.4c-.6.6-1 1.3-1.3 2.1a7.63 7.63 0 0 0 0 5.4 8 8 0 0 0 1.3 2.2c.5.6 1.2 1.1 2 1.4.8.3 1.7.5 2.6.5.9 0 1.8-.2 2.6-.5s1.5-.8 2-1.4c.6-.6 1-1.3 1.3-2.2.3-.8.5-1.7.5-2.7 0-.9-.2-1.8-.5-2.6s-.7-1.5-1.3-2.1c-.6-.6-1.2-1.1-2-1.4-.8-.4-1.6-.6-2.6-.6M5 40.5c-.6 0-2-.1-3.3-1.4C.1 37.5.2 35.6.2 35.5V22.1c0-2 .3-3.8.9-5.3.5-1.5 1.4-2.8 2.4-3.8s2.3-1.9 3.7-2.4c1.5-.5 3.1-.8 4.8-.8a11.35 11.35 0 0 1 8.1 3.3 11.35 11.35 0 0 1 3.3 8.2c0 1.7-.3 3.2-.8 4.6-.6 1.4-1.3 2.6-2.3 3.6-1 1-2.2 1.8-3.5 2.4-1.3.6-2.8.8-4.4.8-1.6 0-3.1-.3-4.4-1-1.1-.5-2-1.2-2.7-2v10.9h-.2c.1-.1.1-.1-.1-.1m26.4-8.6c-.3 0-2.1-.1-3.5-1.5-1.5-1.5-1.5-3.5-1.5-3.6V18c0-2.6.8-4.7 2.4-6.2 1.6-1.4 2.9-2.2 5.8-2.2h.1c.5 0 2.4.1 3.5 1.3 1.3 1.4 1.3 3.1 1.3 3.1v1l-.2-.1c-.2-.1-.4-.1-.7-.2-.7-.2-1.5-.3-2.3-.3-3.2 0-4.7 1.7-4.7 5.1v12.4h-.2zM145.1 20h3.5c1.5 0 2.8-.1 3.7-.3.9-.2 1.7-.4 2.2-.7.5-.3.8-.6 1-1 .2-.4.2-.8.2-1.2 0-1-.4-1.8-1.2-2.3-.8-.5-1.9-.8-3.1-.8-1 0-1.9.2-2.7.5-.8.4-1.4.8-1.9 1.4-.5.6-.9 1.3-1.2 2-.3.9-.4 1.7-.5 2.4m6.5 12.5h-.2c-1.6 0-3.1-.2-4.5-.7-1.4-.5-2.6-1.2-3.7-2.2-1-1-1.9-2.1-2.5-3.5-.6-1.4-.9-3-.9-4.8a11.93 11.93 0 0 1 3.3-8.4c1-1 2.3-1.8 3.7-2.4 1.4-.6 3-.8 4.6-.8 1.5 0 2.8.2 3.9.6 1.1.4 2.1.9 2.9 1.6.8.6 1.4 1.4 1.8 2.3a6.71 6.71 0 0 1 0 5.6c-.4.8-1.1 1.6-2 2.1-.9.6-2.2 1.1-3.8 1.4-1.6.3-3.6.5-6 .5h-1.6c-.4 0-.9 0-1.4-.1.3 1.3.9 2.4 2 3.2 1.1.9 2.8 1.3 4.9 1.3 4.2 0 7.3-2.3 7.3-2.3l.2-.2v.3c.2 1.7-.2 3.2-1.2 4.3-1.5 1.8-4.6 2.2-6.8 2.2m17.4-.6c-.5 0-2.1-.1-3.4-1.4-1.5-1.5-1.5-3.5-1.5-3.5v-8c0-1.4.3-2.7.8-3.9a8.93 8.93 0 0 1 5.5-4.7c1.3-.4 2.7-.6 4.2-.6s2.9.2 4.2.6a8.77 8.77 0 0 1 5.5 4.7c.5 1.1.8 2.4.8 3.9v13H184.8c-.3 0-2.1-.1-3.4-1.4-1.5-1.5-1.5-3.4-1.5-3.5v-6.8c0-1.9-.5-3.3-1.3-4.3-.9-1-2.2-1.4-4-1.4-1.8 0-3.1.5-4 1.4-.9 1-1.3 2.4-1.3 4.3v11.8l-.3-.2c.1 0 .1 0 0 0m-48.8 0c-.5 0-2.1-.1-3.4-1.4-1.5-1.5-1.5-3.5-1.5-3.5v-8c0-1.4.3-2.7.8-3.9a8.93 8.93 0 0 1 5.5-4.7c1.3-.4 2.7-.6 4.2-.6s2.9.2 4.2.6a8.77 8.77 0 0 1 5.5 4.7c.5 1.1.8 2.4.8 3.9v13H136c-.3 0-2.1-.1-3.4-1.4-1.5-1.5-1.5-3.4-1.5-3.5v-6.8c0-1.9-.5-3.3-1.3-4.3-.9-1-2.2-1.4-4-1.4-1.8 0-3.1.5-4 1.4-.9 1-1.3 2.4-1.3 4.3v11.8l-.3-.2c.1 0 .1 0 0 0m-9.7 0c-.4 0-1.9-.1-3.2-1.4-1.5-1.6-1.4-3.4-1.4-3.5V10.4h.2c.3 0 2 .1 3.3 1.5 1.4 1.5 1.4 3.4 1.4 3.5V32h-.2c.1-.1 0-.1-.1-.1m-23.9 0c-.5 0-2.1-.1-3.4-1.4-1.6-1.6-1.5-3.5-1.5-3.6v-6.7c0-2-.5-3.5-1.4-4.4-.9-.9-2.1-1.3-3.5-1.3s-2.6.4-3.5 1.2c-.9.8-1.3 2.2-1.3 4.1V32H71.7c-.5 0-2.1-.1-3.5-1.4-1.5-1.5-1.5-3.5-1.5-3.5v-8.8c0-1.4.2-2.6.7-3.6.5-1 1.2-1.9 2-2.6.8-.7 1.9-1.2 3-1.6 1.1-.4 2.4-.5 3.8-.5 1.8 0 3.4.3 4.8 1 1.3.6 2.4 1.5 3.2 2.7.8-1.2 1.9-2.1 3.2-2.7 1.4-.7 3-1 4.7-1 1.3 0 2.6.2 3.7.5 1.2.3 2.2.9 3 1.6.8.7 1.5 1.6 2 2.6s.7 2.3.7 3.6v13.9H101.2c-.5 0-2.1-.1-3.5-1.4-1.2-1.8-1.1-3.8-1.1-3.8v-7.3c0-1.9-.4-3.2-1.3-4-.8-.8-2-1.2-3.5-1.2-1.4 0-2.6.5-3.5 1.3-.9.9-1.4 2.4-1.4 4.4v11.7H86.6M52.1 14.3c-1 0-1.8.2-2.6.5s-1.5.8-2 1.4c-.6.6-1 1.3-1.3 2.2a7.63 7.63 0 0 0 0 5.4c.3.8.8 1.5 1.3 2.1.6.6 1.2 1.1 2 1.4.8.3 1.7.5 2.6.5.9 0 1.8-.2 2.6-.5s1.5-.8 2-1.4c.6-.6 1-1.3 1.3-2.1a7.63 7.63 0 0 0 0-5.4 8 8 0 0 0-1.3-2.2c-.6-.6-1.2-1.1-2-1.4-.8-.3-1.7-.5-2.6-.5m0 18.2a12.3 12.3 0 0 1-8.5-3.3c-1.1-1-1.9-2.2-2.5-3.6-.6-1.4-.9-2.9-.9-4.5s.3-3.1.9-4.5c.6-1.4 1.4-2.6 2.5-3.6s2.3-1.8 3.8-2.4c1.4-.6 3-.9 4.7-.9a12.3 12.3 0 0 1 8.5 3.3c1.1 1 1.9 2.2 2.5 3.6.6 1.4.9 2.9.9 4.5s-.3 3.1-.9 4.5c-.6 1.4-1.4 2.6-2.5 3.6s-2.3 1.8-3.8 2.4c-1.5.6-3.1.9-4.7.9m144.9-.1c-1.1 0-4-.2-5.8-2-1.3-1.3-1.9-3.1-1.9-5.2V8.9c0-1.4.5-2.6 1.4-3.6 1.4-1.4 3.1-1.5 3.4-1.5h.2v6.5h6.5v.1c0 .1 0 1.9-1.3 3.3-1.3 1.3-3 1.4-3.2 1.4h-2v9.2c0 .7.1 1.3.3 1.7.2.4.4.8.8 1.1.3.3.7.5 1.1.6a6.55 6.55 0 0 0 5.3-1.3l.2-.2v.3c0 .1.2 2.4-1.2 4.1-.8 1-2 1.6-3.6 1.7.3 0 .1.1-.2.1M145.1 20h3.5c1.5 0 2.8-.1 3.7-.3.9-.2 1.7-.4 2.2-.7.5-.3.8-.6 1-1 .2-.4.2-.8.2-1.2 0-1-.4-1.8-1.2-2.3-.8-.5-1.9-.8-3.1-.8-1 0-1.9.2-2.7.5-.8.4-1.4.8-1.9 1.4-.5.6-.9 1.3-1.2 2-.3.9-.4 1.7-.5 2.4m6.5 12.5h-.2c-1.6 0-3.1-.2-4.5-.7-1.4-.5-2.6-1.2-3.7-2.2-1-1-1.9-2.1-2.5-3.5-.6-1.4-.9-3-.9-4.8a11.93 11.93 0 0 1 3.3-8.4c1-1 2.3-1.8 3.7-2.4 1.4-.6 3-.8 4.6-.8 1.5 0 2.8.2 3.9.6 1.1.4 2.1.9 2.9 1.6.8.6 1.4 1.4 1.8 2.3a6.71 6.71 0 0 1 0 5.6c-.4.8-1.1 1.6-2 2.1-.9.6-2.2 1.1-3.8 1.4-1.6.3-3.6.5-6 .5h-1.6c-.4 0-.9 0-1.4-.1.3 1.3.9 2.4 2 3.2 1.1.9 2.8 1.3 4.9 1.3 4.2 0 7.3-2.3 7.3-2.3l.2-.2v.3c.2 1.7-.2 3.2-1.2 4.3-1.5 1.8-4.6 2.2-6.8 2.2M206.3 3.9c-1.8 0-3.2 1.4-3.2 3.2 0 1.8 1.4 3.2 3.2 3.2 1.8 0 3.2-1.4 3.2-3.2.1-1.7-1.4-3.2-3.2-3.2zm0 5.9c-1.4 0-2.6-1.2-2.6-2.6 0-1.4 1.2-2.6 2.6-2.6 1.4 0 2.6 1.2 2.6 2.6.1 1.4-1.1 2.6-2.6 2.6z"/><path d="M207.9 8.7c-.1-.1-.1-.2-.2-.3-.1-.1-.1-.2-.2-.3-.1-.1-.1-.2-.2-.3-.1-.1-.1-.2-.2-.3.2-.1.3-.2.4-.3.1-.2.2-.3.2-.6 0-.2 0-.3-.1-.4l-.3-.3c-.1-.1-.3-.2-.5-.2s-.4-.1-.7-.1H205.2c-.1 0-.1 0-.2.1s-.1.1-.1.2v2.9h.6V7.6H206.3c0 .1.1.1.1.2.1.1.1.2.2.3.1.1.1.2.2.3.1.1.1.2.1.2l1 .1zM205.7 6h.9c.1 0 .2.1.3.1.1 0 .1.1.1.2v.4c0 .1-.1.1-.1.2-.1 0-.2.1-.3.1H205.8V6z"/></svg>