<svg xmlns="http://www.w3.org/2000/svg" width="179" height="121" viewBox="0 0 179 121">
  <g fill="none" fill-rule="evenodd">
        <path fill="#D1232A" class="dark" d="M0 120.62h179V.62H0z"/>
        <path fill="#723A83" class="light" d="M136.49 59.948v-.112c0-20.196-15.916-36.68-35.891-37.615l-.318 6.744c16.372.828 29.39 14.353 29.39 30.92v.063h6.818z"/>
        <path fill="#FFFFFE" class="light" d="M69.215 51.065c0 3.044 2.533 4.136 5.114 4.136 2.303 0 4.399-.576 6.575-1.204l-.238 5.28c-2.228.469-4.973.839-7.236.839-6.21 0-11.63-1.871-11.63-9.554 0-2.069.812-10.85 11.2-10.85 6.402 0 9.916 3.004 9.916 8.43 0 .975-.077 1.948-.273 2.923H69.215zm6.518-3.551c0-2.259-.938-3.43-2.81-3.43-2.109 0-3.28 1.754-3.474 3.43h6.284zM94.482 44.723c-.073 2.179-.356 4.542-.307 7.107.03 1.478.637 2.702 2.282 2.7.933 0 1.442-.075 2.328-.308l-.258 5.183c-1.666.427-3.615.693-5.332.693-3.76 0-6.281-1.004-6.364-5.162-.063-3.079.31-6.739.36-10.199l-3.084-.01.243-5.083 3.177-.002.164-3.5 7.271-1.66-.272 5.128h4.772l-.229 5.237-4.751-.124zM116.607 45.632c-1.67-.604-2.663-.808-4.379-.808-.938 0-2.691 0-2.691.977 0 2.103 6.795 3.67 6.795 8.699 0 4.293-4.885 5.618-8.358 5.618-3.771 0-6.247-.754-7.1-.93l.255-5.319c2.922 1.147 3.398 1.138 5.009 1.138.856 0 2.543-.04 2.543-1.172 0-1.831-6.8-4.018-6.8-8.58 0-3.237 2.38-5.542 7.889-5.542 2.223 0 4.546.337 7.084.75l-.247 5.17zM83.466 62.92c-.43 4.366-1.104 17.635-1.22 24.46h-7.769c.742-8.662.984-15.761 1.216-24.46h7.773zM87.848 68.2c3.088-.701 6.383-1.27 9.391-1.27 6.168 0 8.197 2.07 8.197 5.305 0 .98-.675 11.379-.675 15.283l-7.518-.06c.312-2.883.462-6.404.615-9.29-1.445 1.01-5.933 1.17-5.933 3.474 0 1.208 1.098 1.559 2.143 1.559 1.09 0 2.263-.435 3.59-1.118l-.063 4.671c-2.248.622-4.823.704-5.874.704-7.144 0-7.212-5.273-7.212-5.7 0-8.229 13.318-5.696 13.318-9.131 0-1.287-1.373-1.558-2.417-1.558-2.743 0-5.207.742-7.745 1.681l.183-4.55zM124.42 73.359c-1.6-.544-2.922-.789-4.605-.789-3.002 0-4.918 1.757-4.918 4.795 0 2.927 1.565 4.45 4.488 4.45 1.64 0 3.162-.364 4.69-.908l-.27 5.734c-1.91.47-4.374.751-6.329.751-6.368 0-9.993-3.436-9.993-9.868 0-2.067.505-10.537 10.348-10.537 2.53 0 4.864.321 6.85.826l-.26 5.546zM58.261 77.239c0 2.258 1.104 4.832 3.749 4.832 2.77 0 3.827-2.888 3.827-5.186 0-2.81-1.443-4.605-4.337-4.605-.978 0-1.91.195-2.845.43-.235 1.482-.394 3.004-.394 4.529m-.307 7.72l-.046 1.183c-.088 2.221-.268 6.786-.268 9.663h-7.727c.812-9.247 1.363-18.532 1.363-27.816 3.52-.587 6.985-1.015 11.36-1.015 7.965 0 10.617 4.878 10.617 10.182 0 5.034-2.773 10.225-8.39 10.225-2.54 0-4.917-.823-6.909-2.422M44.565 49.997c0 2.268 1.094 4.842 3.75 4.842 2.771 0 3.822-2.89 3.822-5.193 0-2.805-1.444-4.6-4.33-4.6-.985 0-1.91.197-2.853.428-.233 1.484-.389 3.004-.389 4.523m-.265 7.66l-.047 1.184c-.086 2.219-.264 6.781-.264 9.661h-7.736c.824-9.247 1.368-18.532 1.368-27.818 3.514-.584 6.99-1.015 11.362-1.015 7.966 0 10.62 4.88 10.62 10.185 0 5.034-2.772 10.22-8.392 10.22-2.541 0-4.925-.819-6.91-2.417M132.698 78.3c0 3.043 2.533 4.136 5.114 4.136 2.3 0 4.365-.581 6.551-1.21l-.243 5.335c-2.223.469-4.946.79-7.205.79-6.212 0-11.632-1.869-11.632-9.553 0-2.072.817-10.851 11.198-10.851 6.407 0 9.924 3.003 9.924 8.428 0 .97-.08 1.95-.28 2.925h-13.427zm6.52-3.554c0-2.259-.938-3.432-2.806-3.432-2.113 0-3.285 1.756-3.478 3.432h6.284z"/>
    </g>
    <style>
    html.dark-mode .dark {
      fill: #3e4265 !important;
    }
    html.dark-mode .light{
       fill: #ff0000 !important;
    }
  </style>
</svg>
