<?xml version="1.0" encoding="utf-8"?>
<!-- Generator: Adobe Illustrator 25.2.0, SVG Export Plug-In . SVG Version: 6.00 Build 0)  -->
<svg version="1.1" id="logo" xmlns="http://www.w3.org/2000/svg" xmlns:xlink="http://www.w3.org/1999/xlink" x="0px" y="0px"
	 viewBox="0 0 210.9 44.6" enable-background="new 0 0 210.9 44.6" xml:space="preserve">
<path d="M11.7,14.5c-0.9,0-1.8,0.2-2.6,0.5c-0.8,0.3-1.5,0.8-2,1.4c-0.6,0.6-1,1.3-1.3,2.1c-0.3,0.8-0.5,1.7-0.5,2.7
	c0,1,0.2,1.9,0.5,2.7c0.3,0.8,0.8,1.6,1.3,2.2c0.5,0.6,1.2,1.1,2,1.4c0.8,0.3,1.7,0.5,2.6,0.5c0.9,0,1.8-0.2,2.6-0.5
	c0.8-0.3,1.5-0.8,2-1.4c0.6-0.6,1-1.3,1.3-2.2c0.3-0.8,0.5-1.7,0.5-2.7c0-0.9-0.2-1.8-0.5-2.6c-0.3-0.8-0.7-1.5-1.3-2.1
	c-0.6-0.6-1.2-1.1-2-1.4C13.5,14.7,12.7,14.5,11.7,14.5 M5,40.5c-0.6,0-2-0.1-3.3-1.4c-1.6-1.6-1.5-3.5-1.5-3.6l0-13.4
	c0-2,0.3-3.8,0.9-5.3C1.6,15.3,2.5,14,3.5,13c1-1,2.3-1.9,3.7-2.4c1.5-0.5,3.1-0.8,4.8-0.8c1.6,0,3.1,0.3,4.5,0.9
	c1.4,0.6,2.6,1.4,3.6,2.4c1,1,1.8,2.2,2.4,3.6c0.6,1.4,0.9,2.9,0.9,4.6c0,1.7-0.3,3.2-0.8,4.6c-0.6,1.4-1.3,2.6-2.3,3.6
	c-1,1-2.2,1.8-3.5,2.4c-1.3,0.6-2.8,0.8-4.4,0.8c-1.6,0-3.1-0.3-4.4-1c-1.1-0.5-2-1.2-2.7-2v10.9l-0.2,0C5.2,40.5,5.2,40.5,5,40.5
	 M31.4,31.9c-0.3,0-2.1-0.1-3.5-1.5c-1.5-1.5-1.5-3.5-1.5-3.6v-8.8c0-2.6,0.8-4.7,2.4-6.2c1.6-1.4,2.9-2.2,5.8-2.2l0.1,0
	c0.5,0,2.4,0.1,3.5,1.3c1.3,1.4,1.3,3.1,1.3,3.1L39.5,15l-0.2-0.1c-0.2-0.1-0.4-0.1-0.7-0.2c-0.7-0.2-1.5-0.3-2.3-0.3
	c-3.2,0-4.7,1.7-4.7,5.1v12.4L31.4,31.9z M145.1,20c0.6,0,1.1,0,1.7,0h1.8c1.5,0,2.8-0.1,3.7-0.3c0.9-0.2,1.7-0.4,2.2-0.7
	c0.5-0.3,0.8-0.6,1-1c0.2-0.4,0.2-0.8,0.2-1.2c0-1-0.4-1.8-1.2-2.3c-0.8-0.5-1.9-0.8-3.1-0.8c-1,0-1.9,0.2-2.7,0.5
	c-0.8,0.4-1.4,0.8-1.9,1.4c-0.5,0.6-0.9,1.3-1.2,2C145.3,18.5,145.2,19.3,145.1,20 M151.6,32.5l-0.2,0c-1.6,0-3.1-0.2-4.5-0.7
	c-1.4-0.5-2.6-1.2-3.7-2.2c-1-1-1.9-2.1-2.5-3.5c-0.6-1.4-0.9-3-0.9-4.8c0-1.7,0.3-3.3,0.9-4.7c0.6-1.4,1.4-2.6,2.4-3.7
	c1-1,2.3-1.8,3.7-2.4c1.4-0.6,3-0.8,4.6-0.8c1.5,0,2.8,0.2,3.9,0.6c1.1,0.4,2.1,0.9,2.9,1.6c0.8,0.6,1.4,1.4,1.8,2.3
	c0.4,0.9,0.6,1.8,0.6,2.8c0,1-0.2,1.9-0.6,2.8c-0.4,0.8-1.1,1.6-2,2.1c-0.9,0.6-2.2,1.1-3.8,1.4c-1.6,0.3-3.6,0.5-6,0.5
	c-0.6,0-1.1,0-1.6,0c-0.4,0-0.9,0-1.4-0.1c0.3,1.3,0.9,2.4,2,3.2c1.1,0.9,2.8,1.3,4.9,1.3c4.2,0,7.3-2.3,7.3-2.3l0.2-0.2l0,0.3
	c0.2,1.7-0.2,3.2-1.2,4.3C156.9,32.1,153.8,32.5,151.6,32.5 M169,31.9c-0.5,0-2.1-0.1-3.4-1.4c-1.5-1.5-1.5-3.5-1.5-3.5v-8
	c0-1.4,0.3-2.7,0.8-3.9c0.5-1.1,1.3-2.1,2.2-2.9c0.9-0.8,2-1.4,3.3-1.8c1.3-0.4,2.7-0.6,4.2-0.6c1.5,0,2.9,0.2,4.2,0.6
	c1.3,0.4,2.4,1,3.3,1.8c0.9,0.8,1.7,1.8,2.2,2.9c0.5,1.1,0.8,2.4,0.8,3.9v13l-0.2,0c0,0,0,0-0.1,0c-0.3,0-2.1-0.1-3.4-1.4
	c-1.5-1.5-1.5-3.4-1.5-3.5v-6.8c0-1.9-0.5-3.3-1.3-4.3c-0.9-1-2.2-1.4-4-1.4c-1.8,0-3.1,0.5-4,1.4c-0.9,1-1.3,2.4-1.3,4.3v11.8
	L169,31.9C169.1,31.9,169.1,31.9,169,31.9 M120.2,31.9c-0.5,0-2.1-0.1-3.4-1.4c-1.5-1.5-1.5-3.5-1.5-3.5v-8c0-1.4,0.3-2.7,0.8-3.9
	c0.5-1.1,1.3-2.1,2.2-2.9c0.9-0.8,2-1.4,3.3-1.8c1.3-0.4,2.7-0.6,4.2-0.6c1.5,0,2.9,0.2,4.2,0.6c1.3,0.4,2.4,1,3.3,1.8
	c0.9,0.8,1.7,1.8,2.2,2.9c0.5,1.1,0.8,2.4,0.8,3.9v13l-0.2,0c0,0,0,0-0.1,0c-0.3,0-2.1-0.1-3.4-1.4c-1.5-1.5-1.5-3.4-1.5-3.5v-6.8
	c0-1.9-0.5-3.3-1.3-4.3c-0.9-1-2.2-1.4-4-1.4c-1.8,0-3.1,0.5-4,1.4c-0.9,1-1.3,2.4-1.3,4.3v11.8L120.2,31.9
	C120.3,31.9,120.3,31.9,120.2,31.9 M110.5,31.9c-0.4,0-1.9-0.1-3.2-1.4c-1.5-1.6-1.4-3.4-1.4-3.5V10.4l0.2,0c0.3,0,2,0.1,3.3,1.5
	c1.4,1.5,1.4,3.4,1.4,3.5v16.6l-0.2,0C110.7,31.9,110.6,31.9,110.5,31.9 M86.6,31.9c-0.5,0-2.1-0.1-3.4-1.4
	c-1.6-1.6-1.5-3.5-1.5-3.6l0-6.7c0-2-0.5-3.5-1.4-4.4c-0.9-0.9-2.1-1.3-3.5-1.3c-1.4,0-2.6,0.4-3.5,1.2c-0.9,0.8-1.3,2.2-1.3,4.1
	v12.2l-0.2,0c0,0,0,0-0.1,0c-0.5,0-2.1-0.1-3.5-1.4c-1.5-1.5-1.5-3.5-1.5-3.5v-8.8c0-1.4,0.2-2.6,0.7-3.6c0.5-1,1.2-1.9,2-2.6
	c0.8-0.7,1.9-1.2,3-1.6c1.1-0.4,2.4-0.5,3.8-0.5c1.8,0,3.4,0.3,4.8,1c1.3,0.6,2.4,1.5,3.2,2.7c0.8-1.2,1.9-2.1,3.2-2.7
	c1.4-0.7,3-1,4.7-1c1.3,0,2.6,0.2,3.7,0.5c1.2,0.3,2.2,0.9,3,1.6c0.8,0.7,1.5,1.6,2,2.6c0.5,1,0.7,2.3,0.7,3.6v13.9l-0.2,0
	c0,0,0,0-0.1,0c-0.5,0-2.1-0.1-3.5-1.4C96.5,29,96.6,27,96.6,27v-7.3c0-1.9-0.4-3.2-1.3-4c-0.8-0.8-2-1.2-3.5-1.2
	c-1.4,0-2.6,0.5-3.5,1.3c-0.9,0.9-1.4,2.4-1.4,4.4v11.7l-0.2,0C86.8,31.9,86.7,31.9,86.6,31.9 M52.1,14.3c-1,0-1.8,0.2-2.6,0.5
	c-0.8,0.3-1.5,0.8-2,1.4c-0.6,0.6-1,1.3-1.3,2.2c-0.3,0.8-0.5,1.7-0.5,2.7c0,1,0.2,1.9,0.5,2.7c0.3,0.8,0.8,1.5,1.3,2.1
	c0.6,0.6,1.2,1.1,2,1.4c0.8,0.3,1.7,0.5,2.6,0.5c0.9,0,1.8-0.2,2.6-0.5c0.8-0.3,1.5-0.8,2-1.4c0.6-0.6,1-1.3,1.3-2.1
	c0.3-0.8,0.5-1.7,0.5-2.7c0-1-0.2-1.9-0.5-2.7c-0.3-0.8-0.8-1.6-1.3-2.2c-0.6-0.6-1.2-1.1-2-1.4C53.9,14.5,53,14.3,52.1,14.3
	 M52.1,32.5c-1.7,0-3.2-0.3-4.7-0.9c-1.4-0.6-2.7-1.4-3.8-2.4c-1.1-1-1.9-2.2-2.5-3.6c-0.6-1.4-0.9-2.9-0.9-4.5
	c0-1.6,0.3-3.1,0.9-4.5c0.6-1.4,1.4-2.6,2.5-3.6c1.1-1,2.3-1.8,3.8-2.4c1.4-0.6,3-0.9,4.7-0.9c1.7,0,3.2,0.3,4.7,0.9
	c1.4,0.6,2.7,1.4,3.8,2.4c1.1,1,1.9,2.2,2.5,3.6c0.6,1.4,0.9,2.9,0.9,4.5c0,1.6-0.3,3.1-0.9,4.5c-0.6,1.4-1.4,2.6-2.5,3.6
	c-1.1,1-2.3,1.8-3.8,2.4C55.3,32.2,53.7,32.5,52.1,32.5 M197,32.4c-1.1,0-4-0.2-5.8-2c-1.3-1.3-1.9-3.1-1.9-5.2V8.9
	c0-1.4,0.5-2.6,1.4-3.6c1.4-1.4,3.1-1.5,3.4-1.5l0.2,0l0,0.2v6.3h6.5l0,0.1c0,0.1,0,1.9-1.3,3.3c-1.3,1.3-3,1.4-3.2,1.4h-2v9.2
	c0,0.7,0.1,1.3,0.3,1.7c0.2,0.4,0.4,0.8,0.8,1.1c0.3,0.3,0.7,0.5,1.1,0.6c0,0,0.5,0.1,1.1,0.1c1.1,0,2.7-0.2,4.2-1.4l0.2-0.2l0,0.3
	c0,0.1,0.2,2.4-1.2,4.1c-0.8,1-2,1.6-3.6,1.7C197.5,32.3,197.3,32.4,197,32.4 M145.1,20c0.6,0,1.1,0,1.7,0h1.8
	c1.5,0,2.8-0.1,3.7-0.3c0.9-0.2,1.7-0.4,2.2-0.7c0.5-0.3,0.8-0.6,1-1c0.2-0.4,0.2-0.8,0.2-1.2c0-1-0.4-1.8-1.2-2.3
	c-0.8-0.5-1.9-0.8-3.1-0.8c-1,0-1.9,0.2-2.7,0.5c-0.8,0.4-1.4,0.8-1.9,1.4c-0.5,0.6-0.9,1.3-1.2,2C145.3,18.5,145.2,19.3,145.1,20
	 M151.6,32.5l-0.2,0c-1.6,0-3.1-0.2-4.5-0.7c-1.4-0.5-2.6-1.2-3.7-2.2c-1-1-1.9-2.1-2.5-3.5c-0.6-1.4-0.9-3-0.9-4.8
	c0-1.7,0.3-3.3,0.9-4.7c0.6-1.4,1.4-2.6,2.4-3.7c1-1,2.3-1.8,3.7-2.4c1.4-0.6,3-0.8,4.6-0.8c1.5,0,2.8,0.2,3.9,0.6
	c1.1,0.4,2.1,0.9,2.9,1.6c0.8,0.6,1.4,1.4,1.8,2.3c0.4,0.9,0.6,1.8,0.6,2.8c0,1-0.2,1.9-0.6,2.8c-0.4,0.8-1.1,1.6-2,2.1
	c-0.9,0.6-2.2,1.1-3.8,1.4c-1.6,0.3-3.6,0.5-6,0.5c-0.6,0-1.1,0-1.6,0c-0.4,0-0.9,0-1.4-0.1c0.3,1.3,0.9,2.4,2,3.2
	c1.1,0.9,2.8,1.3,4.9,1.3c4.2,0,7.3-2.3,7.3-2.3l0.2-0.2l0,0.3c0.2,1.7-0.2,3.2-1.2,4.3C156.9,32.1,153.8,32.5,151.6,32.5"/>
<g>
	<path d="M206.3,3.9c-1.8,0-3.2,1.4-3.2,3.2c0,1.8,1.4,3.2,3.2,3.2c1.8,0,3.2-1.4,3.2-3.2C209.6,5.4,208.1,3.9,206.3,3.9z
		 M206.3,9.8c-1.4,0-2.6-1.2-2.6-2.6c0-1.4,1.2-2.6,2.6-2.6c1.4,0,2.6,1.2,2.6,2.6C209,8.6,207.8,9.8,206.3,9.8z"/>
	<path d="M207.9,8.7c-0.1-0.1-0.1-0.2-0.2-0.3c-0.1-0.1-0.1-0.2-0.2-0.3c-0.1-0.1-0.1-0.2-0.2-0.3c-0.1-0.1-0.1-0.2-0.2-0.3
		c0.2-0.1,0.3-0.2,0.4-0.3c0.1-0.2,0.2-0.3,0.2-0.6c0-0.2,0-0.3-0.1-0.4c-0.1-0.1-0.2-0.2-0.3-0.3c-0.1-0.1-0.3-0.2-0.5-0.2
		c-0.2,0-0.4-0.1-0.7-0.1c-0.2,0-0.4,0-0.6,0c-0.1,0-0.2,0-0.3,0l0,0c-0.1,0-0.1,0-0.2,0.1c-0.1,0.1-0.1,0.1-0.1,0.2v2.9h0.6V7.6
		c0,0,0.1,0,0.2,0c0.1,0,0.2,0,0.3,0c0.1,0,0.1,0,0.2,0c0.1,0,0.1,0,0.1,0c0,0.1,0.1,0.1,0.1,0.2c0.1,0.1,0.1,0.2,0.2,0.3
		c0.1,0.1,0.1,0.2,0.2,0.3c0.1,0.1,0.1,0.2,0.1,0.2l0,0L207.9,8.7L207.9,8.7z M205.7,6c0,0,0.1,0,0.1,0c0.1,0,0.2,0,0.4,0
		c0.2,0,0.3,0,0.4,0c0.1,0,0.2,0.1,0.3,0.1c0.1,0,0.1,0.1,0.1,0.2c0,0.1,0,0.1,0,0.2c0,0.1,0,0.2,0,0.2c0,0.1-0.1,0.1-0.1,0.2
		c-0.1,0-0.2,0.1-0.3,0.1c-0.1,0-0.2,0-0.4,0c-0.2,0-0.3,0-0.3,0c-0.1,0-0.1,0-0.1,0V6z"/>
</g>
<g>
</g>
<g>
</g>
<g>
</g>
<g>
</g>
<g>
</g>
<g>
</g>
</svg>
