<svg xmlns="http://www.w3.org/2000/svg" viewBox="0 0 500 76.11"><path fill="#d20000" d="M18.98.37c-.81 0-1.59.3-2.32.89-.66.5-1.2 1.32-1.6 2.44L.33 42.18c-.46 1.2-.5 2.35.44 3.15.43.37 1.52.55 2.27.55 1.54 0 2.94-.66 3.4-1.93.96-2.7 3-8.07 3-8.07h19.22l3.01 8.07c.24.66.58 1.19 1.16 1.56.52.33 1.64.46 2.2.5.78.03 1.89-.2 2.37-.56.5-.37.75-.9.75-1.62a4.4 4.4 0 0 0-.25-1.65L22.96 3.58a5.42 5.42 0 0 0-1.63-2.39 3.66 3.66 0 0 0-2.35-.82zm0 9.9h.12l7.26 19.76H11.64zM71.19.49c-5.57.01-11.35 4-13.18 9.3-1.32 4.05-.04 9.07 3.77 11.4 4.29 3.11 9.7 3.78 13.35 5.65 2.26 1.16 3.45 3.9 3.06 6.42-.4 4.6-4.75 7.3-9.52 6.62-3.07-.19-4.97-1.43-7.52-3.03-1.51-.96-3.65.51-3.8 2.28-.42 2.25 1.64 4.27 3.44 5 5.3 2.06 11.62 2.58 16.88.12 5.78-2.7 8.9-9.61 7.24-15.62-.73-3.25-3.41-6.25-6.42-7.65-3.7-1.87-6.57-2.11-10.24-4.05-2.33-1.23-4.34-3.45-3.31-6.1.74-3.08 3.6-4.17 6.81-4 3.21-.03 4.8 2.24 7.83 2.94 1.89.01 3.74-3.02 2.63-4.66-1.44-2.2-4.61-3.77-7.1-4.3C73.83.59 72.52.5 71.2.5z"/><g fill="#737373"><path d="m14.32 67.84 1.22 3.27h1.8l-5.95-15.24-1.51.1-5.9 15.14h1.66l1.22-3.27zm-.55-1.47H7.41l3.29-8.42zM27.04 59.96h-1.77v11.15h1.65v-5.76c0-1.69.37-4.19 2.76-4.19 1.96 0 2.4 2.24 2.4 3.62v6.33h1.65v-5.9c0-1.7.38-4.05 2.72-4.05 2.08 0 2.6 2.03 2.56 3.47v6.48h1.66v-6.79c0-2.34-.77-4.67-3.82-4.67-1.45 0-2.87.62-3.58 1.85a3.7 3.7 0 0 0-3.3-1.85c-1.23 0-2.24.6-2.88 1.52h-.05zM48.74 59.77c-3.49 0-5.16 2.6-5.16 5.9 0 3.2 1.89 5.62 5.2 5.62 2 0 3.62-.77 4.71-2.3l-1.03-1.05a4.2 4.2 0 0 1-3.53 1.72c-2.16 0-3.63-1.42-3.65-3.48h8.14c.2-3.32-1.1-6.41-4.68-6.41zm.02 1.51c2.08 0 3.07 1.82 3.03 3.4h-6.42c0-1.58 1.28-3.4 3.4-3.4zM80.04 61.4c2.1 0 3.36 1.8 3.36 4.03 0 2.26-1.15 4.22-3.34 4.22-2.13 0-3.27-2.06-3.27-4.24 0-2.09 1.27-4.01 3.25-4.01zm-4.87 9.7h1.7v-1.54h.04a4.06 4.06 0 0 0 3.45 1.85c2.93 0 4.78-2.78 4.78-5.88 0-3.16-1.83-5.89-4.8-5.89-1.36 0-2.62.72-3.43 1.9h-.04v-6.37h-1.7zM101.81 59.98h-1.9V71.1h1.66v-5.93c0-1.45.95-2.95 2.18-3.65.44-.24 1.5.02 1.5.02l.54-1.37c-.55-.3-.95-.4-1.59-.4-.76 0-1.56.75-2.22 1.4h-.17zM118.32 71.41c2.88 0 5.2-2.59 5.2-5.86 0-3.27-2.3-5.9-5.2-5.9-2.9 0-5.2 2.63-5.2 5.9 0 3.27 2.32 5.86 5.2 5.86zm0-9.89c2.08 0 3.39 1.75 3.39 4 0 2.28-1.3 4.01-3.39 4.01-2.08 0-3.39-1.73-3.39-4 0-2.26 1.3-4 3.39-4zM128.32 61.35h1.97v-1.4h-1.97v-1.34c0-1.43-.2-2.13 1.06-2.45.42-.1.85.12 1.28.26v-1.56a4.5 4.5 0 0 0-1.35-.23c-1.14 0-1.8.48-2.27 1.15-.55.8-.46 1.97-.38 2.9v1.28h-1.28v1.39h1.28v9.76h1.66zM145.49 55.8c-4.36 0-7.44 3.57-7.44 7.93 0 4.31 3.14 7.8 7.44 7.8 1.61 0 3.22-.78 4.53-1.73l-1.2-1.14a6.47 6.47 0 0 1-3.39 1.18c-3.4 0-5.44-3.43-5.45-6.17 0-2.74 2.02-6.17 5.4-6.17 1.23 0 2.42.5 3.43 1.15L150 57.5a7.59 7.59 0 0 0-4.51-1.71zM153.72 62.46v-6.59h-1.45v15.24h1.45v-6.97l.67.03 7.2 6.94h2.34l-8.23-7.87 7.99-7.37h-2.16l-7.2 6.56zM173.42 63.08v-7.14h-1.8v15.2h1.8v-6.49h8.25v6.5h1.8V55.94h-1.8v7.14zM188.66 59.96h-1.64v6.43c0 2.96.94 5.03 4.41 5.03s4.42-2.07 4.42-5.03v-6.43h-1.64v6.21c0 1.88-.35 3.73-2.78 3.73s-2.77-1.85-2.77-3.73zM201.7 61.35h1.63v-1.4h-1.63V56.8h-1.66v3.16h-1.4v1.39h1.4v9.76h1.66zM211.01 59.65a5.88 5.88 0 0 0-5.95 5.88 5.78 5.78 0 0 0 5.93 5.88c1.09 0 1.91-.4 2.82-.9l-.93-1.54c-.62.37-1.2.69-2.04.69-2.32 0-3.84-1.92-3.84-4.13 0-2.23 1.64-4.12 3.94-4.12.79 0 1.34.33 1.93.7l.94-1.55c-.9-.5-1.8-.91-2.8-.91zM216.02 55.17V71.1h1.66v-5.29c0-1.57.28-4.53 2.9-4.53 2.2 0 2.46 1.73 2.46 3.54v6.28h1.66v-6.62c0-2.6-.47-4.84-3.56-4.84-1.37 0-2.4.6-3.17 1.66l-.3-.04v-6.09zM230.34 59.96h-1.9v11.15h1.9zm-.95-4.34c-.73 0-1.35.62-1.35 1.35a1.35 1.35 0 1 0 1.35-1.35zM241.21 61.59a4.12 4.12 0 0 0-3.55-2.06c-2.09 0-4.45 1.4-4.45 3.27 0 3.51 5.87 2.56 5.82 5.15-.02.9-.9 1.7-2.09 1.7-1.45 0-2.2-.49-2.76-1.53l-1.82.96c.68 1.75 2.38 2.33 4.55 2.33 2.4 0 4.37-1.52 4.37-3.63 0-1.87-1.48-2.65-3-3.2-1.5-.54-3-.75-2.99-1.94.01-.86 1.43-1.36 2.2-1.36.8 0 1.94.67 2.24 1.26zM258.42 59.96h-1.9v11.15h1.66v-6.02c0-2 .9-3.93 3.02-3.93 2.2 0 2.59 1.86 2.59 3.66v6.29h1.65v-6.62c0-2.6-.71-4.84-3.8-4.84-1.37 0-2.39.6-3.17 1.66h-.05zM304.38 55.17h-1.66V71.1h1.66zM312.42 61.4c2.03 0 3.24 1.8 3.24 4.03 0 2.26-1.1 4.22-3.22 4.22-2.05 0-3.15-2.06-3.15-4.24 0-2.09 1.22-4.01 3.13-4.01zm3.16 9.7h1.63V55.17h-1.63v6.37h-.05a4 4 0 0 0-3.3-1.9c-2.88 0-4.62 2.73-4.62 5.91 0 3.08 1.78 5.86 4.6 5.86 1.32 0 2.52-.64 3.32-1.85h.05zM342.4 59.65c-3 0-4.91 2.8-4.91 5.93 0 3.1 1.88 5.83 4.84 5.83 1.37 0 2.71-.68 3.53-1.85h.05v1.33c0 2.43-1.66 3.4-3.27 3.58-1.24.14-2.8-.3-3.48-1.74l-1.13 1.12c.83 1.75 2.93 2.27 4.63 2.26a4.83 4.83 0 0 0 3.82-1.85c.95-1.14 1.16-2.53 1.16-4.3v-10h-1.73v1.59h-.05a4.13 4.13 0 0 0-3.46-1.9zm.18 1.76c2.14 0 3.42 1.8 3.42 4.03 0 2.25-1.17 4.22-3.4 4.22-2.17 0-3.34-2.06-3.34-4.25 0-2.08 1.3-4 3.32-4zM92.37 59.77c-3.49 0-5.16 2.6-5.16 5.9 0 3.2 1.89 5.62 5.2 5.62 2 0 3.62-.77 4.71-2.3l-1.03-1.05a4.2 4.2 0 0 1-3.53 1.72c-2.16 0-3.63-1.42-3.65-3.48h8.14c.2-3.32-1.1-6.41-4.68-6.41zm.02 1.51c2.08 0 3.07 1.82 3.03 3.4H89c0-1.58 1.28-3.4 3.4-3.4zM58.02 59.96h-1.77v11.15h1.65v-5.76c0-1.69.37-4.19 2.76-4.19 1.96 0 2.4 2.24 2.4 3.62v6.33h1.65v-5.9c0-1.7.38-4.05 2.72-4.05 2.08 0 2.59 2.03 2.56 3.47v6.48h1.66v-6.79c0-2.34-.77-4.67-3.82-4.67-1.45 0-2.87.62-3.58 1.85a3.7 3.7 0 0 0-3.3-1.85c-1.23 0-2.24.6-2.88 1.52h-.05zM248.67 71.41c2.88 0 5.2-2.59 5.2-5.86 0-3.27-2.3-5.9-5.2-5.9-2.9 0-5.2 2.63-5.2 5.9 0 3.27 2.32 5.86 5.2 5.86zm0-9.89c2.08 0 3.39 1.75 3.39 4 0 2.28-1.3 4.01-3.39 4.01s-3.39-1.73-3.39-4c0-2.26 1.3-4 3.39-4zM294.75 71.41c2.88 0 5.2-2.59 5.2-5.86 0-3.27-2.3-5.9-5.2-5.9-2.9 0-5.2 2.63-5.2 5.9 0 3.27 2.32 5.86 5.2 5.86zm0-9.89c2.08 0 3.39 1.75 3.39 4 0 2.28-1.3 4.01-3.39 4.01-2.08 0-3.39-1.73-3.39-4 0-2.26 1.3-4 3.39-4zM276.56 63.08v-7.14h-1.8v15.2h1.8v-6.49h8.25v6.5h1.8V55.94h-1.8v7.14zM322.38 59.96h-1.9v11.15h1.9zm-.95-4.34c-.73 0-1.35.62-1.35 1.35a1.35 1.35 0 1 0 1.35-1.35zM358.84 61.59a4.12 4.12 0 0 0-3.55-2.06c-2.09 0-4.45 1.4-4.45 3.27 0 3.51 5.87 2.56 5.82 5.15-.02.9-.9 1.7-2.09 1.7-1.45 0-2.2-.49-2.76-1.53l-1.82.96c.68 1.75 2.38 2.33 4.55 2.33 2.4 0 4.37-1.52 4.37-3.63 0-1.87-1.48-2.65-3-3.2-1.5-.54-3-.75-2.99-1.94.01-.86 1.43-1.36 2.2-1.36.8 0 1.94.67 2.24 1.26zM327.7 59.96h-1.9v11.15h1.66v-6.02c0-2 .9-3.93 3.02-3.93 2.2 0 2.59 1.86 2.59 3.66v6.29h1.65v-6.62c0-2.6-.71-4.84-3.8-4.84-1.37 0-2.39.6-3.17 1.66h-.05z"/></g><g fill="#d20000"><path d="M47.45 38.4c-.96 0-1.83.36-2.6 1.1a3.95 3.95 0 0 0-1.06 2.6c0 .96.35 1.8 1.05 2.53a3.65 3.65 0 0 0 2.61 1.13c.94 0 1.8-.36 2.6-1.06a3.95 3.95 0 0 0 1.06-2.6c0-1.01-.35-1.88-1.05-2.6a3.71 3.71 0 0 0-2.61-1.1zM93.76 38.4c-.96 0-1.83.36-2.6 1.1a3.95 3.95 0 0 0-1.06 2.6c0 .96.35 1.8 1.06 2.53a3.65 3.65 0 0 0 2.6 1.13c.94 0 1.8-.36 2.6-1.06a3.95 3.95 0 0 0 1.06-2.6c0-1.01-.35-1.88-1.05-2.6a3.71 3.71 0 0 0-2.61-1.1zM167.27 0c-.74 0-2.14.26-2.71.76-.39.34-.67.79-.86 1.34-.07.18-.12.38-.16.59l-5.3 33.16L148.1 2.69a2.6 2.6 0 0 0-1.08-1.56 3 3 0 0 0-1.88-.64c-1.36 0-2.23.73-2.6 2.2l-9.76 33.16-5.92-32.91a2.72 2.72 0 0 0-1.02-1.8c-.6-.44-1.5-.65-2.23-.65-.74 0-1.59.3-2.06.89a4.53 4.53 0 0 0-.77 2.8l7.06 38.27a4.3 4.3 0 0 0 1.45 2.7 4.7 4.7 0 0 0 5.34.24 3.7 3.7 0 0 0 1.52-2.08l9.1-30.25h.13l9.11 30.13a4.14 4.14 0 0 0 1.55 2.2c.68.49 1.49.73 2.44.73a4.2 4.2 0 0 0 2.77-1.04 4.54 4.54 0 0 0 1.55-2.9l7.06-37.72V3.33c0-1.1-.25-1.93-.77-2.5a2.3 2.3 0 0 0-1.82-.83zM213.97 1.65c-.76 0-1.45.23-2.06.68a2.3 2.3 0 0 0-.82 1.9v7.62h-2.38c-1.73 0-2.69 1.31-2.89 2.96.07.62.36 1.66.89 2.15.48.46 1.15.72 2 .68h2.38v25.29c0 .94.27 1.64.82 2.1.52.49 1.4.74 2.17.74a3.9 3.9 0 0 0 2.36-.71c.6-.5.9-1.16.91-2V17.63h2.77c.95-.1 1.58-.38 2.12-1.02.24-.37.37-1.3.37-1.81.02-.7-.37-1.8-.73-2.25a3 3 0 0 0-2.03-.7h-2.5v-7.5c0-.9-.28-1.58-.85-2.03a3.73 3.73 0 0 0-2.16-.68zM236.62 11.36c-3.91.13-8.12 1.72-10.15 5.3a8.31 8.31 0 0 0-.06 8.46c1.64 2.96 6.1 3.88 8.6 5.28 2.3 1.3 5.92 2.14 6.98 3.67 1.16 1.67.45 3.6-.74 4.55-2.78 2.22-7.42 1.63-10.6-.72-1.42-.94-3-2.38-4.82-1.7-1.47.54-2.35 3.3-1.55 4.57.73 1.3 2.12 2.02 3.33 2.8 4.32 2.42 9.63 2.76 14.33 1.4 3.58-1.13 6.78-4.12 7.28-8.04a8.53 8.53 0 0 0-2.32-7.06c-3.07-3.45-10.3-4.78-12.62-6.26-1.26-.8-2.6-2.33-2.25-3.74.44-1.78 3.2-2.76 4.7-2.82 1.85-.07 3.2.38 4.75 1.41 1.37.92 3.15 2.93 4.84 2.33 1.37-.48 2.23-2.53 1.88-3.94-.64-2.6-3.95-3.98-6.37-4.77a18.3 18.3 0 0 0-5.21-.72zM291.89 11.36c-.76 0-1.9.27-2.44.8a2.91 2.91 0 0 0-.77 2.16v28.6c0 .85.3 1.57.9 2.17.53.53 1.67.8 2.43.8.77 0 1.89-.25 2.38-.74.52-.52.77-1.26.77-2.22V24.92a7.7 7.7 0 0 1 1.15-4.4 7.3 7.3 0 0 1 2.84-2.42 7.58 7.58 0 0 1 3.87-.83c1.45.11 3 .65 4.04 1.67a6.9 6.9 0 0 1 2.29 5.37v18.62c0 .86.26 1.52.8 1.97.54.5 1.67.74 2.4.74.8 0 1.93-.22 2.45-.68.56-.49.83-1.17.83-2.03V24.18c0-2.73-.54-5.1-1.63-7.09a10.51 10.51 0 0 0-4.4-4.34 12.04 12.04 0 0 0-5.81-1.39c-1.88 0-3.55.4-5.14 1.14a8.86 8.86 0 0 0-3.56 2.78l-.13-.12v-1.33c0-.93-.27-1.16-.83-1.7-.5-.51-1.64-.77-2.44-.77zM358.43.49c-6.17 0-12.38 2.92-15.84 8.05-3.29 4.68-4.47 10.57-4.29 16.2.35 6.07 2.63 12.24 7.2 16.46 3.67 3.43 8.82 4.95 13.8 4.66 4.83-.06 9.94-1.43 13.21-5.14 2.95-2.86 4.2-6.88 4.74-10.81.31-2.52.6-5.35.13-7.86-.42-1.95-2.57-2.5-4.33-2.33-3.29.02-7.2-.06-10.48.04-2.5.5-2.47 5.53.2 5.78 2.88.09 5.29.02 8.18.04.12 3.8-.2 7.42-2.8 10.44-4.47 5.17-12.64 5-17.26 1.25-4.5-3.66-5.65-9.27-5.61-14.86.26-5.37 1.93-9.89 6.43-13.3 3.88-2.89 8.23-3.08 12.67-1.4 2.27.95 4.4 2.8 6.5 4 1.9.94 4.57-1.7 3.83-3.85-1.2-2.37-3.9-4.62-6.31-5.58A27.76 27.76 0 0 0 358.43.5zM396.88 11.36a9.61 9.61 0 0 0-4.27 1.36 7.83 7.83 0 0 0-2.6 2.4c-.24.36-.46.23-.67.6h-.12v-1.77c0-.9-.28-1.22-.84-1.7-.54-.5-1.7-.77-2.46-.77-.77 0-1.9.26-2.43.77-.54.48-.8 1.17-.8 2.07v28.49c0 .92.26 1.66.8 2.22a4.5 4.5 0 0 0 4.95 0c.55-.57.78-1.44.78-2.1V26.65a8.5 8.5 0 0 1 1.15-4.56 8.08 8.08 0 0 1 3.36-3.24c.6-.3 1.42-.56 2.43-.8 1.3-.35 2.27-.73 2.93-1.14.65-.44.97-1.75.97-2.71 0-.78-.32-1.45-.97-2a2.78 2.78 0 0 0-2.21-.84zM415.86 11.36a14.3 14.3 0 0 0-12.87 7.92c-2.5 4.76-2.74 10.54-1.24 15.64 1.6 5.38 6.2 10.04 11.88 10.7 4.1.58 8.51-.42 11.6-3.28 4.65-4.04 6.17-10.67 5.42-16.6-.64-5.76-4.2-11.44-9.76-13.49-1.61-.59-3.32-.86-5.03-.89zm0 6.03c2.68 0 5.38 2.12 6.68 4.47a14.4 14.4 0 0 1 .38 12.54c-1.3 2.7-4.2 5.2-7.18 5.36-2.35.13-4.85-1.59-6.06-3.6-2.42-4.03-2.83-9.9-.73-14.1 1.24-2.5 4.13-4.66 6.91-4.67zM439.43 11.36c-.77 0-1.91.26-2.43.77-.55.47-.82 1.16-.82 2.07v18.5c0 2.44.47 4.63 1.41 6.56a11.43 11.43 0 0 0 4.43 4.75c1.97 1.17 4.45 1.76 7.47 1.76 3.14 0 5.75-.61 7.84-1.82a11.28 11.28 0 0 0 4.5-4.81 14.15 14.15 0 0 0 1.4-6.45V14.2c0-.9-.28-1.59-.84-2.06a2.78 2.78 0 0 0-1.98-.77c-.2 0-1.36.01-1.53.05-.54.1-1 .34-1.4.72-.54.47-.81 1.16-.81 2.07v17.4c0 5.6-1.7 8.4-7.06 8.4-2.61 0-3.6-.75-4.89-2.27-1.32-1.48-1.98-3.53-1.98-6.14V14.2c0-.9-.28-1.59-.85-2.06-.54-.51-1.69-.77-2.46-.77zM473.82 11.36c-.73 0-1.85.26-2.4.77a3 3 0 0 0-.77 2.19v41.1c0 .99.28 1.75.84 2.28.58.64 1.73.96 2.45.96.77 0 1.93-.3 2.49-.9.5-.55.75-1.37.75-2.46V41.6h.12c2.3 3.02 4.5 4.16 8.28 4.16 2.82 0 5.34-.77 7.54-2.3a14.96 14.96 0 0 0 5.11-6.27 21.06 21.06 0 0 0 1.78-8.84c0-2.5-.37-4.78-1.1-6.88a15.26 15.26 0 0 0-3.17-5.36 13.19 13.19 0 0 0-4.68-3.55c-1.76-.8-3.8-1.2-6.1-1.2-3.9.06-5.78 1.4-7.36 4.02l-.3.54h-.12V14.2c0-.9-.27-1.6-.81-2.07a4.38 4.38 0 0 0-2.55-.77zm11.63 5.79c2 .06 2.8.69 4.13 1.88a10.5 10.5 0 0 1 2.93 4.56c.65 1.85.97 2.86.97 5-.06 2.45-.18 3.41-.85 5.1a10.19 10.19 0 0 1-3.05 4.35c-1.23 1.07-2.5 2.04-4.01 1.97a9.47 9.47 0 0 1-6.64-3.55c-1.7-2.22-2.31-4.15-2.31-7.99.06-2.22.4-3.21 1.03-4.94a9.9 9.9 0 0 1 3.11-4.63c1.44-1.17 2.35-1.75 4.7-1.75zM267.95 11.3a14.3 14.3 0 0 0-12.87 7.92c-2.5 4.76-2.74 10.54-1.24 15.64 1.6 5.38 6.2 10.04 11.88 10.7 4.1.58 8.51-.42 11.6-3.28 4.65-4.04 6.17-10.67 5.42-16.6-.64-5.76-4.2-11.44-9.76-13.49-1.61-.59-3.32-.86-5.03-.89zm0 6.03c2.68 0 5.38 2.12 6.68 4.47a14.4 14.4 0 0 1 .38 12.54c-1.3 2.7-4.2 5.2-7.18 5.36-2.35.13-4.85-1.59-6.06-3.6-2.42-4.03-2.83-9.9-.73-14.1 1.24-2.5 4.13-4.66 6.91-4.67zM198.63 11.36c1.84-.17 3.48 1.36 3.17 3.23 0 9.44.02 18.88-.01 28.32 0 2.75-4.1 3.9-5.69 1.76-.41-.98-.45-2.07-.83-3.07-1.16 1.16-2.31 2.66-3.95 3.34-3.27 1.34-7.12 1.02-10.28-.48-5.06-2.46-7.95-7.98-8.46-13.4-.56-5.24.43-10.98 4.13-14.95 2.46-3 6.28-4.7 10.15-4.74 3.13.03 6.75 1.08 8.29 4.06.33-.26.19-1.05.34-1.52-.03-1.66 1.66-2.57 3.14-2.55zM187 17.15a6.83 6.83 0 0 0-5.77 2.85c-2.26 2.81-2.73 6.56-2.45 10.05.09 3.97 2.26 8.23 6.14 9.68 2.82.86 5.87-.52 7.9-2.46a10.85 10.85 0 0 0 3-7.77c.2-3.02-.78-6-2.22-8.62-1.3-2.22-3.73-3.9-6.39-3.73z"/></g></svg>