<svg xmlns="http://www.w3.org/2000/svg">
  <path d="M300.152 367.892c0-178.233 413.379-322.724 923.303-322.724 220.478 0 422.905 27.032 581.692 72.097C1635.787 45.66 1379.733.004 1093.135.004c-509.924 0-923.271 144.524-923.271 322.757 0 101.16 133.168 191.422 341.576 250.626-131.99-55.834-211.288-127.408-211.288-205.495" fill="#1b1c42" fill-rule="evenodd" class="light"/>
  <path d="M363.437 60.363C145.636 113.02 0 208.78 0 318.188c0 111.175 136.865 202.648 360.425 254.75-174.534-65.815-269.738-152.87-269.738-255.502 0-100.57 104.368-191.521 272.75-257.073" fill="#7eca2b"  class="light"/>
  <path d="M555.468 334.363v-93.371h51.185c14.072 0 26.247 4.647 36.23 13.777 9.949 9.099 14.988 20.16 14.988 32.924 0 12.731-5.039 23.794-14.988 32.891-9.983 9.13-22.158 13.779-36.23 13.779zM673.22 477.937c-13.385 12.24-29.815 18.426-48.861 18.426h-68.891V370.592h68.89c19.047 0 35.477 6.217 48.862 18.425 13.288 12.207 20.063 27.163 20.063 44.476 0 17.28-6.775 32.236-20.063 44.444m27.688-114.742c-8.673-7.788-18.13-14.106-28.21-18.786 16.2-15.708 24.414-34.789 24.414-56.716 0-22.876-8.903-42.644-26.51-58.745-17.542-16.037-39.077-24.185-63.949-24.185h-70.822c-5.335 0-9.982 1.766-13.778 5.269-3.862 3.535-5.825 7.855-5.825 12.861v291.6c0 5.008 1.963 9.329 5.825 12.863 3.796 3.468 8.443 5.236 13.778 5.236h88.528c29.716 0 55.44-9.72 76.45-28.93 21.044-19.278 31.714-42.874 31.714-70.169 0-27.294-10.638-50.956-31.615-70.298M785.567 233.11c-6.512 0-12.207 2.194-16.887 6.48-4.745 4.354-7.168 9.623-7.168 15.677 0 6.088 2.423 11.357 7.168 15.709 4.68 4.288 10.375 6.48 16.887 6.48 6.513 0 12.208-2.192 16.888-6.48 4.745-4.352 7.166-9.621 7.166-15.71 0-6.053-2.421-11.322-7.166-15.675-4.68-4.287-10.375-6.48-16.888-6.48M785.567 301.963c-5.335 0-9.982 1.766-13.811 5.269-3.861 3.535-5.825 7.853-5.825 12.861v194.4c0 5.008 1.964 9.329 5.825 12.861 3.83 3.47 8.476 5.238 13.81 5.238 5.335 0 9.982-1.768 13.811-5.238 3.863-3.532 5.826-7.886 5.826-12.86v-194.4c0-5.009-1.963-9.327-5.826-12.862-3.829-3.503-8.476-5.27-13.81-5.27M964.464 496.365c-23.89 0-44.51-7.821-61.33-23.202-16.79-15.318-25.266-34.135-25.266-55.866 0-21.764 8.476-40.549 25.265-55.898 16.822-15.383 37.44-23.204 61.331-23.204 23.89 0 44.51 7.821 61.33 23.204 16.79 15.349 25.3 34.134 25.3 55.898 0 21.731-8.51 40.548-25.3 55.866-16.82 15.381-37.44 23.202-61.33 23.202m106.233-292.025c-5.334 0-9.982 1.8-13.81 5.27-3.863 3.534-5.794 7.886-5.794 12.86v111.11c-24.021-20.979-53.149-31.615-86.629-31.615-34.56 0-64.473 11.324-88.953 33.71-24.48 22.418-36.916 49.876-36.916 81.622 0 31.712 12.436 59.17 36.916 81.588 24.48 22.386 54.393 33.71 88.953 33.71s64.505-11.324 88.953-33.71c24.48-22.417 36.916-49.876 36.916-81.588V222.471c0-4.975-1.964-9.327-5.825-12.862-3.83-3.469-8.476-5.269-13.81-5.269" fill="#1b1c42" class="light"/>
  <path d="M1252.095 314.115h-51.415V303.87c0-42.316 22.516-62.87 68.89-62.87 5.335 0 9.983-1.766 13.811-5.269 3.863-3.535 5.827-7.855 5.827-12.861 0-4.975-1.964-9.295-5.827-12.863-3.828-3.468-8.476-5.236-13.81-5.236-71.771 0-108.131 33.35-108.131 99.099v10.244h-15.807c-5.334 0-9.982 1.766-13.812 5.269-3.861 3.535-5.825 7.853-5.825 12.861 0 5.007 1.964 9.295 5.825 12.83 3.83 3.501 8.478 5.268 13.812 5.268h15.807v164.16c0 4.974 1.93 9.296 5.793 12.83 3.828 3.502 8.476 5.268 13.811 5.268 5.335 0 9.981-1.766 13.81-5.267 3.862-3.535 5.826-7.857 5.826-12.83V350.343h51.415c5.334 0 9.981-1.767 13.81-5.268 3.863-3.535 5.826-7.855 5.826-12.83 0-5.008-1.963-9.326-5.826-12.861-3.829-3.503-8.476-5.27-13.81-5.27M1407.173 496.365c-23.893 0-44.506-7.821-61.333-23.202-16.787-15.318-25.264-34.135-25.264-55.866 0-21.764 8.477-40.549 25.264-55.898 16.827-15.383 37.44-23.204 61.333-23.204 23.894 0 44.507 7.821 61.334 23.204 16.786 15.349 25.293 34.134 25.293 55.898 0 21.731-8.507 40.548-25.293 55.866-16.827 15.381-37.44 23.202-61.334 23.202m88.947-160.69c-24.48-22.386-54.387-33.71-88.947-33.71s-64.466 11.324-88.953 33.71c-24.48 22.418-36.916 49.876-36.916 81.622 0 31.712 12.436 59.17 36.916 81.588 24.487 22.386 54.393 33.71 88.953 33.71s64.467-11.324 88.947-33.71c24.48-22.417 36.92-49.876 36.92-81.588 0-31.746-12.44-59.204-36.92-81.622M1685.027 496.365c-23.894 0-44.507-7.821-61.334-23.202-16.786-15.318-25.266-34.135-25.266-55.866 0-21.764 8.48-40.549 25.266-55.898 16.827-15.383 37.44-23.204 61.334-23.204 23.893 0 44.506 7.821 61.333 23.204 16.787 15.349 25.267 34.134 25.267 55.898 0 21.731-8.48 40.548-25.267 55.866-16.827 15.381-37.44 23.202-61.333 23.202m88.946-160.69c-24.48-22.386-54.386-33.71-88.946-33.71-34.56 0-64.48 11.324-88.96 33.71-24.48 22.418-36.907 49.876-36.907 81.622 0 31.712 12.427 59.17 36.907 81.588 24.48 22.386 54.4 33.71 88.96 33.71 34.56 0 64.466-11.324 88.946-33.71 24.48-22.417 36.92-49.876 36.92-81.588 0-31.746-12.44-59.204-36.92-81.622M1962.88 496.365c-23.893 0-44.507-7.821-61.333-23.202-16.787-15.318-25.267-34.135-25.267-55.866 0-21.764 8.48-40.549 25.267-55.898 16.826-15.383 37.44-23.204 61.333-23.204s44.507 7.821 61.333 23.204c16.787 15.349 25.254 34.134 25.254 55.898 0 21.731-8.467 40.548-25.254 55.866-16.826 15.381-37.44 23.202-61.333 23.202m120.04-286.756c-3.827-3.469-8.48-5.269-13.813-5.269-5.334 0-9.974 1.8-13.774 5.27-3.866 3.534-5.866 7.886-5.866 12.86v111.11c-23.987-20.979-53.107-31.615-86.587-31.615-34.56 0-64.48 11.324-88.92 33.71-24.52 22.418-36.947 49.876-36.947 81.622 0 31.712 12.427 59.17 36.947 81.588 24.44 22.386 54.36 33.71 88.92 33.71s64.467-11.324 88.947-33.71c24.48-22.417 36.92-49.876 36.92-81.588V222.471c0-4.975-1.96-9.327-5.827-12.862" fill="#7eca2b" class="light"/>
</svg>
